<svg xmlns="http://www.w3.org/2000/svg" viewBox="0 0 340.16 117.51"><defs><style>.cls-1{fill:#fff;}</style></defs><title>rs18-logo</title><g id="Layer_2" data-name="Layer 2"><g id="logo"><path class="cls-1" d="M96.36,54.65h6.15l7,13.7h8.28V68l-8.1-15.3a11.34,11.34,0,0,0,5-4.07,11.59,11.59,0,0,0,1.66-6.39,10.19,10.19,0,0,0-3.6-8.35q-3.6-3-10.23-3H88.65V68.35h7.71Zm0-17.48h6.2a6.24,6.24,0,0,1,4.61,1.51,5.67,5.67,0,0,1,1.51,4.17,5.28,5.28,0,0,1-1.6,4.07,6.34,6.34,0,0,1-4.5,1.48H96.36Z"/><path class="cls-1" d="M134.56,68.86a14.87,14.87,0,0,0,6.32-1.32,11.28,11.28,0,0,0,4.53-3.69l-3.65-4.09a8,8,0,0,1-6.71,3.11,6.6,6.6,0,0,1-4.59-1.64,6.91,6.91,0,0,1-2.17-4.37H146v-3q0-6.6-3.28-10.2a11.53,11.53,0,0,0-9-3.6A12.81,12.81,0,0,0,127,41.81a11.91,11.91,0,0,0-4.58,5.08,16.86,16.86,0,0,0-1.62,7.5v.72a13.35,13.35,0,0,0,3.84,10A13.65,13.65,0,0,0,134.56,68.86Zm-4.43-21.35a4.62,4.62,0,0,1,3.58-1.5,4.78,4.78,0,0,1,3.65,1.35,5.53,5.53,0,0,1,1.34,3.84v.59H128.37A7.63,7.63,0,0,1,130.13,47.51Z"/><polygon class="cls-1" points="163.84 68.35 173.22 40.53 165.46 40.53 160.29 59.27 155.13 40.53 147.36 40.53 156.75 68.35 163.84 68.35"/><path class="cls-1" d="M189,68.86a14.88,14.88,0,0,0,6.33-1.32,11.24,11.24,0,0,0,4.52-3.69l-3.65-4.09a8,8,0,0,1-6.71,3.11,6.6,6.6,0,0,1-4.59-1.64,7,7,0,0,1-2.17-4.37h17.71v-3q0-6.6-3.27-10.2a11.55,11.55,0,0,0-9-3.6,12.78,12.78,0,0,0-6.77,1.79,11.87,11.87,0,0,0-4.59,5.08,16.86,16.86,0,0,0-1.62,7.5v.72a13.35,13.35,0,0,0,3.84,10A13.67,13.67,0,0,0,189,68.86Zm-4.43-21.35a4.64,4.64,0,0,1,3.59-1.5,4.81,4.81,0,0,1,3.65,1.35,5.57,5.57,0,0,1,1.33,3.84v.59H182.76A7.7,7.7,0,0,1,184.52,47.51Z"/><path class="cls-1" d="M212,50.15q1.31-2.86,5.52-2.86a19.74,19.74,0,0,1,2.68.21l.1-7.15A7.87,7.87,0,0,0,218,40a6.89,6.89,0,0,0-6.2,3.83l-.2-3.32h-7V68.35H212Z"/><path class="cls-1" d="M237.78,62.78a5.37,5.37,0,0,1-3.22.81,5.8,5.8,0,0,1-3.65-1.05,3.91,3.91,0,0,1-1.47-3h-7a7.91,7.91,0,0,0,1.54,4.69,10.44,10.44,0,0,0,4.25,3.42,14.75,14.75,0,0,0,6.21,1.25,14,14,0,0,0,8.43-2.35,7.26,7.26,0,0,0,3.27-6.16q0-5.33-5.89-7.48a32.87,32.87,0,0,0-4.68-1.25,11.7,11.7,0,0,1-3.94-1.31,2.28,2.28,0,0,1-1.17-2,2.68,2.68,0,0,1,1-2.16,4.46,4.46,0,0,1,2.9-.85,4.31,4.31,0,0,1,3.21,1,3.56,3.56,0,0,1,1,2.63H246a7.87,7.87,0,0,0-3.17-6.48A13.36,13.36,0,0,0,234.38,40a12.43,12.43,0,0,0-8,2.48,7.62,7.62,0,0,0-3.07,6.18q0,6.34,9.92,8.43a15.35,15.35,0,0,1,4.33,1.4,2.4,2.4,0,0,1,1.35,2.15A2.52,2.52,0,0,1,237.78,62.78Z"/><path class="cls-1" d="M35.75.9C-4.9-7.16-3.59,42.78,4.61,65.13c5.17-.46,16.54-2.67,16.54-2.67C7.38,20,24.19,6.24,35.75.9Z"/><path class="cls-1" d="M56.12,56.07c4.6-.41,12.53-1.58,12.53-1.58s1.84-13-7.92-32C53.34,8.12,38.54,1.17,37.3,1.39A52.3,52.3,0,0,0,25.85,9.15C47.91,10.56,58.62,35.08,56.12,56.07Z"/><ellipse class="cls-1" cx="15.55" cy="85.61" rx="10.55" ry="14.07" transform="translate(-16.18 4.59) rotate(-11.1)"/><path class="cls-1" d="M12,69.21a11.9,11.9,0,0,1,4.51-2.41L16,64.36l-4.89.88Z"/><path class="cls-1" d="M60.69,58.13A8.67,8.67,0,0,1,61.94,58h.3a10,10,0,0,1,2.19.24l.4-.09-.32-2.27-4,.63Z"/><path class="cls-1" d="M71.09,62.48a18.24,18.24,0,0,1,.54,21.6c-.1.14-.21.27-.32.4,3.37-2,5.64-6.46,5.49-11.64-.17-5.53-3-10.13-6.89-11.61A12.78,12.78,0,0,1,71.09,62.48Z"/><path class="cls-1" d="M332.39,24.71A47.37,47.37,0,0,0,313.18,5.24,44.51,44.51,0,0,0,290,.05a44,44,0,0,0-22.29,7.33,30.82,30.82,0,0,0-12.23,16.13,32.34,32.34,0,0,0-1.38,6.06,3.79,3.79,0,0,0-2.19,1,3.95,3.95,0,0,0,0,5.53,4.76,4.76,0,0,0,6,0,3.92,3.92,0,0,0,0-5.53,3.84,3.84,0,0,0-2-1,30.82,30.82,0,0,1,1.3-5.58A29.1,29.1,0,0,1,268.77,8.89a42.19,42.19,0,0,1,21.36-7,42.65,42.65,0,0,1,22.19,5,45.59,45.59,0,0,1,18.46,18.73c5,9.25,7.55,20.49,7.55,33.41,0,8.11-4.18,27-20,40.59-7.62,6.53-17.09,11.14-28.17,13.7-13.14,3-28.68,3.2-46.18.5-6.74-1-12.84-2-18.74-2.94-23.56-3.75-40.59-6.46-57.17-6.7-17-.25-33.35,2-56.32,7.8-11.86,3-22,1.86-30-3.37-8.89-5.77-13.36-15.31-15.41-21.33a10.66,10.66,0,0,0,3-1.93h0c.18-.16.34-.33.51-.5l.09-.09.41-.45.09-.1.44-.54,0,0c.3-.4.58-.82.85-1.26a1,1,0,0,1,.08-.14c.1-.17.2-.35.29-.53l.09-.16c.1-.19.19-.39.28-.58l.06-.11c.11-.24.21-.49.31-.74v0c.09-.23.17-.47.26-.71l.06-.2c.06-.18.12-.37.17-.56a1.55,1.55,0,0,0,.07-.23l.15-.58a1.6,1.6,0,0,1,0-.21c0-.26.11-.53.16-.8v0c.05-.25.08-.5.11-.75a2.6,2.6,0,0,0,0-.26l.06-.58c0-.09,0-.19,0-.29l0-.58V74c0-.28,0-.56,0-.85h0c0-.22,0-.45,0-.66a1,1,0,0,1,0-.17l-.06-.65v0L73.8,71c0-.05,0-.11,0-.17s-.07-.4-.11-.6v-.06l-.12-.58a1.16,1.16,0,0,1,0-.18c0-.18-.1-.36-.14-.54a.56.56,0,0,1,0-.12l-.15-.5a1.18,1.18,0,0,0-.07-.2L73,67.6a1.8,1.8,0,0,1-.08-.21c-.05-.14-.11-.28-.16-.41a2.29,2.29,0,0,1-.1-.23c0-.12-.1-.24-.16-.36s-.09-.21-.14-.31l-.16-.31a2,2,0,0,0-.13-.25l-.14-.27c-.08-.13-.16-.26-.23-.4l-.14-.21c-.05-.09-.11-.18-.17-.27l-.12-.18a5,5,0,0,0-.33-.47l-.09-.14-.22-.27-.08-.1c-.14-.18-.29-.35-.44-.52L70,62.62l-.26-.28,0,0c-.17-.18-.35-.35-.53-.52l0,0-.3-.26h0L68.22,61h0l-.32-.23h0A9.75,9.75,0,0,0,62,58.93c-6.41.18-11.41,6.85-11.17,14.89s5.62,14.41,12,14.22a9.52,9.52,0,0,0,1.77-.22c.48,1.41,1.08,3,1.85,4.72,4.32,9.64,10.16,14.86,14.3,17.55a36.1,36.1,0,0,0,13.15,5,134.52,134.52,0,0,1-26.94,0A78.64,78.64,0,0,1,43,109.05a49.24,49.24,0,0,1-12.66-8,31.73,31.73,0,0,1-2.74-2.73c4.79-3.12,7.36-10,5.94-17.19-1.75-9-9-15.08-16.09-13.68a11.24,11.24,0,0,0-6.41,3.87,9.4,9.4,0,0,1,1.59-.47,9.13,9.13,0,0,1,1.73-.16h0a11.1,11.1,0,0,1,7.84,3.63,18,18,0,0,1,4.56,9A17.55,17.55,0,0,1,25.6,94.33a10.63,10.63,0,0,1-5.81,5.6A10.5,10.5,0,0,0,26,99.25c1.82,2.17,6.71,7.16,16.15,11.4a79.89,79.89,0,0,0,24.51,6.26,113.66,113.66,0,0,0,11.88.6,125,125,0,0,0,33.69-3.8c22.82-5.72,39-8,55.85-7.75,16.46.25,33.43,3,56.91,6.68,5.91.94,12,1.91,18.75,3a156,156,0,0,0,23.63,1.92,103.85,103.85,0,0,0,23.24-2.45c11.37-2.63,21.11-7.37,29-14.1a59.21,59.21,0,0,0,16.67-23.63,54.3,54.3,0,0,0,4-18.34C340.16,45.76,337.54,34.23,332.39,24.71Z"/><path class="cls-1" d="M295.76,40a9.53,9.53,0,0,0-8.35,4.24Q285.4,40,280,40a9.8,9.8,0,0,0-8,3.62l-.23-3.11h-7V68.35h7.43V48.64A4.79,4.79,0,0,1,276.84,46a4.13,4.13,0,0,1,3.24,1.08,5.27,5.27,0,0,1,.95,3.5V68.35h7.43l0-19.15A4.64,4.64,0,0,1,293.06,46a4.11,4.11,0,0,1,3.27,1.09,5.37,5.37,0,0,1,.92,3.47V68.35h7.46V50.58q0-5.3-2.21-7.93C301,40.9,298.78,40,295.76,40Z"/><path class="cls-1" d="M167.78,83.6a2,2,0,0,1,1.27-.37,1.88,1.88,0,0,1,1.4.46,1.57,1.57,0,0,1,.45,1.15h3.25A3.41,3.41,0,0,0,172.76,82a5.8,5.8,0,0,0-3.7-1.09A5.41,5.41,0,0,0,165.55,82a3.34,3.34,0,0,0-1.35,2.7c0,1.86,1.45,3.08,4.34,3.69a7.14,7.14,0,0,1,1.9.61,1.06,1.06,0,0,1,.59.94,1.1,1.1,0,0,1-.48.93,2.33,2.33,0,0,1-1.41.35,2.54,2.54,0,0,1-1.6-.46,1.67,1.67,0,0,1-.64-1.32h-3.08a3.48,3.48,0,0,0,.68,2A4.42,4.42,0,0,0,166.36,93a6.31,6.31,0,0,0,2.71.55,6.15,6.15,0,0,0,3.69-1,3.17,3.17,0,0,0,1.42-2.69,3.35,3.35,0,0,0-2.57-3.27,12.91,12.91,0,0,0-2.05-.55,5.31,5.31,0,0,1-1.72-.57,1,1,0,0,1-.51-.87A1.19,1.19,0,0,1,167.78,83.6Z"/><path class="cls-1" d="M177.55,81.14v8a4.82,4.82,0,0,0,1,3.29,3.85,3.85,0,0,0,3,1.13,4.08,4.08,0,0,0,3.32-1.46L185,93.3h3.06V81.14H184.8v8.62a2.34,2.34,0,0,1-2.27,1.15c-1.15,0-1.73-.63-1.73-1.9V81.14Z"/><path class="cls-1" d="M195.09,82.5l-.1-1.36h-3V93.3h3.24V84.69a2.11,2.11,0,0,1,2-1.15,1.8,1.8,0,0,1,1.42.47,2.28,2.28,0,0,1,.42,1.53V93.3h3.25l0-8.37a2,2,0,0,1,2-1.39,1.76,1.76,0,0,1,1.42.48,2.29,2.29,0,0,1,.41,1.51V93.3h3.26V85.54a5.26,5.26,0,0,0-1-3.47,3.6,3.6,0,0,0-2.94-1.15,4.21,4.21,0,0,0-3.66,1.85,3.24,3.24,0,0,0-3.22-1.85A4.29,4.29,0,0,0,195.09,82.5Z"/><path class="cls-1" d="M230.69,93.3V85.54a5.32,5.32,0,0,0-1-3.47,3.64,3.64,0,0,0-2.95-1.15,4.18,4.18,0,0,0-3.65,1.85,3.26,3.26,0,0,0-3.23-1.85,4.27,4.27,0,0,0-3.49,1.58l-.1-1.36h-3.05V93.3h3.25V84.69a2.1,2.1,0,0,1,2-1.15,1.8,1.8,0,0,1,1.42.47,2.33,2.33,0,0,1,.41,1.53V93.3h3.25V84.93a2,2,0,0,1,2-1.39A1.8,1.8,0,0,1,227,84a2.29,2.29,0,0,1,.4,1.51V93.3Z"/><rect class="cls-1" x="234.63" y="81.14" width="3.26" height="12.16"/><path class="cls-1" d="M237.58,76.79a2.12,2.12,0,0,0-2.66,0,1.64,1.64,0,0,0-.49,1.2,1.59,1.59,0,0,0,.51,1.22,1.85,1.85,0,0,0,1.32.47,1.89,1.89,0,0,0,1.32-.47,1.71,1.71,0,0,0,0-2.42Z"/><path class="cls-1" d="M247.86,83.52V81.14h-2.08v-3h-3.25v3h-1.77v2.38h1.77v6.56q.08,3.45,3.49,3.45a6.91,6.91,0,0,0,2-.29V90.77a4.65,4.65,0,0,1-1,.08,1.27,1.27,0,0,1-1-.29,1.46,1.46,0,0,1-.26-1V83.52Z"/><path class="cls-1" d="M260.67,79.45a4.65,4.65,0,0,0-1.83,1.74,4.76,4.76,0,0,0-.65,2.43h3.31A2.64,2.64,0,0,1,262,82a1.46,1.46,0,0,1,1.23-.65,1.41,1.41,0,0,1,1.16.48,2.14,2.14,0,0,1,.41,1.41c0,.75-.57,1.78-1.7,3.06l-4.59,4.83V93.3h10V90.75h-5.62l1.85-2.12a23.72,23.72,0,0,0,2.13-2.35,6.69,6.69,0,0,0,1-1.68,4.43,4.43,0,0,0,.32-1.64,3.84,3.84,0,0,0-1.25-3.07,5.33,5.33,0,0,0-3.56-1.06A5.38,5.38,0,0,0,260.67,79.45Z"/><path class="cls-1" d="M276,78.84a4.52,4.52,0,0,0-3.68,1.56A6.87,6.87,0,0,0,271,84.86v2.61a6.78,6.78,0,0,0,1.3,4.45,5.07,5.07,0,0,0,7.35,0,6.83,6.83,0,0,0,1.3-4.46v-2.6a6.83,6.83,0,0,0-1.31-4.46A4.49,4.49,0,0,0,276,78.84ZM277.68,88a4.78,4.78,0,0,1-.41,2.26A1.33,1.33,0,0,1,276,91a1.36,1.36,0,0,1-1.28-.74,5.09,5.09,0,0,1-.4-2.34V84.23a4.76,4.76,0,0,1,.42-2.14,1.31,1.31,0,0,1,1.24-.71,1.35,1.35,0,0,1,1.27.76,5.1,5.1,0,0,1,.4,2.3Z"/><polygon class="cls-1" points="290.56 93.3 290.56 79.03 290.26 79.03 284 81.2 284 83.71 287.25 82.76 287.25 93.3 290.56 93.3"/><path class="cls-1" d="M295.39,87.34a3.61,3.61,0,0,0-.59,2,3.71,3.71,0,0,0,1.35,3,5.55,5.55,0,0,0,3.66,1.11,5.45,5.45,0,0,0,3.63-1.11,3.73,3.73,0,0,0,1.32-3,3.51,3.51,0,0,0-.6-2.05A4.09,4.09,0,0,0,302.55,86,3.7,3.7,0,0,0,304,84.68a3.25,3.25,0,0,0,.52-1.84,3.65,3.65,0,0,0-1.27-2.94,6,6,0,0,0-6.84,0,3.67,3.67,0,0,0-1.26,2.94,3.25,3.25,0,0,0,.52,1.84A3.69,3.69,0,0,0,297.06,86,4,4,0,0,0,295.39,87.34Zm3.38-5.53a1.22,1.22,0,0,1,1-.44,1.23,1.23,0,0,1,1,.45,1.88,1.88,0,0,1,.35,1.2,2.14,2.14,0,0,1-.34,1.24,1.19,1.19,0,0,1-1,.47,1.23,1.23,0,0,1-1-.47,2.07,2.07,0,0,1-.35-1.24A1.89,1.89,0,0,1,298.77,81.81Zm-.18,5.94a1.77,1.77,0,0,1,2.4,0,1.87,1.87,0,0,1,.46,1.36,1.93,1.93,0,0,1-.45,1.35,1.53,1.53,0,0,1-1.19.49,1.6,1.6,0,0,1-1.22-.49,1.89,1.89,0,0,1-.46-1.35A1.87,1.87,0,0,1,298.59,87.75Z"/><rect class="cls-1" x="251.26" y="40.53" width="7.45" height="27.81"/></g></g></svg>