<svg id="Layer_1" data-name="Layer 1" xmlns="http://www.w3.org/2000/svg" viewBox="0 0 997.3 285.32"><defs><style>.cls-1{fill:#fff;}.cls-2{fill:#71cea6;}</style></defs><title>logo</title><path class="cls-1" d="M649.64,31.05c.91-.15,1.89-.3,2.93-.44s2.09-.24,3.13-.32,2.06-.14,3-.18,1.89-.06,2.72-.06a29.3,29.3,0,0,1,5.7.56,15.57,15.57,0,0,1,5,1.92,10.3,10.3,0,0,1,3.54,3.67,11.25,11.25,0,0,1,1.33,5.73,17.25,17.25,0,0,1-.5,4.4,12.37,12.37,0,0,1-1.39,3.28A9.94,9.94,0,0,1,673,52.06a18.83,18.83,0,0,1-2.74,1.86l10,18.08h-9.33l-8.34-16.19h-4.84V72h-8.1Zm12.41,6.21c-.82,0-1.64,0-2.45.06a9.89,9.89,0,0,0-1.86.23v12h3.19A9.08,9.08,0,0,0,666.42,48c1.42-1,2.13-2.72,2.13-5.08a5.38,5.38,0,0,0-1.65-4.17A7,7,0,0,0,662.05,37.26Z"/><path class="cls-1" d="M717.42,68.87a11,11,0,0,1-2,1.39,20.67,20.67,0,0,1-2.84,1.27,21.57,21.57,0,0,1-3.57.94,22.79,22.79,0,0,1-4.14.36,20.08,20.08,0,0,1-6.77-1.07,13.44,13.44,0,0,1-5-3.1,13.58,13.58,0,0,1-3.16-4.9,18.21,18.21,0,0,1-1.09-6.53,17.26,17.26,0,0,1,1.24-6.82,13.68,13.68,0,0,1,3.4-4.88,14.1,14.1,0,0,1,5-2.92,19.61,19.61,0,0,1,10.9-.39,12.72,12.72,0,0,1,4.4,2,11,11,0,0,1,3.28,3.87,13.14,13.14,0,0,1,1.27,6.15,28.41,28.41,0,0,1-.59,5.49H696.5a6.74,6.74,0,0,0,.8,3.19,6.23,6.23,0,0,0,2,2.13A8.48,8.48,0,0,0,702,66.3a13.84,13.84,0,0,0,3.34.38,17.28,17.28,0,0,0,5.82-.82,12.49,12.49,0,0,0,3.7-2ZM704.65,47.78a9.71,9.71,0,0,0-2.89.42,8.06,8.06,0,0,0-2.45,1.23,6.88,6.88,0,0,0-1.81,2,6.23,6.23,0,0,0-.82,2.71h14.53a5.82,5.82,0,0,0-6.56-6.38Z"/><path class="cls-1" d="M744.24,63.08h.41l6.62-20.62h8.27L748.26,72H740l-12.7-29.54h8.92Z"/><path class="cls-1" d="M797.18,68.87a10.32,10.32,0,0,1-2,1.39,20.51,20.51,0,0,1-2.83,1.27,22,22,0,0,1-3.58.94,22.79,22.79,0,0,1-4.14.36,20,20,0,0,1-6.76-1.07,13.25,13.25,0,0,1-8.21-8,18.21,18.21,0,0,1-1.1-6.53,17.44,17.44,0,0,1,1.24-6.82,13.68,13.68,0,0,1,3.4-4.88,14.19,14.19,0,0,1,5-2.92,19.61,19.61,0,0,1,10.9-.39,12.68,12.68,0,0,1,4.41,2,11,11,0,0,1,3.28,3.87,13.27,13.27,0,0,1,1.27,6.15,28.41,28.41,0,0,1-.59,5.49H776.26a6.86,6.86,0,0,0,.8,3.19,6.23,6.23,0,0,0,2,2.13,8.63,8.63,0,0,0,2.78,1.21,13.78,13.78,0,0,0,3.34.38,17.36,17.36,0,0,0,5.82-.82,12.56,12.56,0,0,0,3.69-2ZM784.42,47.78a9.78,9.78,0,0,0-2.9.42,8.17,8.17,0,0,0-2.45,1.23,6.72,6.72,0,0,0-1.8,2,6.24,6.24,0,0,0-.83,2.71H791a5.84,5.84,0,0,0-6.56-6.38Z"/><path class="cls-2" d="M807.82,65.5h7.32V49h-7.32v-6.5h13.29l.89,3.9h.23A15.56,15.56,0,0,1,826,43.11a9.33,9.33,0,0,1,5-1.3,6.69,6.69,0,0,1,5.58,2.6c1.36,1.73,2,4.63,2,8.68h-6.91a6,6,0,0,0-.62-3.1,2.18,2.18,0,0,0-2-1,5.8,5.8,0,0,0-3.81,1.18,11.76,11.76,0,0,0-2.46,2.72V65.5h12.83V72H807.82Z"/><path class="cls-2" d="M869.15,63.85A2.14,2.14,0,0,0,867.7,62a20.22,20.22,0,0,0-3.58-1.3c-1.41-.4-3-.8-4.66-1.21a21.36,21.36,0,0,1-4.67-1.72A11.8,11.8,0,0,1,851.21,55a6.48,6.48,0,0,1-1.44-4.35,7.43,7.43,0,0,1,1-3.84A8.89,8.89,0,0,1,853.4,44a12.73,12.73,0,0,1,4-1.74,20.7,20.7,0,0,1,5.05-.59,28.14,28.14,0,0,1,5.08.41,25.36,25.36,0,0,1,3.81,1,13.86,13.86,0,0,1,2.78,1.33c.77.49,1.43.93,2,1.33L872.87,51c-.59-.36-1.27-.72-2-1.1s-1.58-.71-2.42-1a19,19,0,0,0-2.66-.77,13,13,0,0,0-2.75-.29,10.36,10.36,0,0,0-4,.65,2.13,2.13,0,0,0-1.53,2c0,.71.48,1.28,1.45,1.72a23,23,0,0,0,3.57,1.21c1.42.37,3,.78,4.67,1.21a25.18,25.18,0,0,1,4.67,1.68,11.24,11.24,0,0,1,3.57,2.69,6.22,6.22,0,0,1,1.45,4.26,8.48,8.48,0,0,1-3.28,7.06q-3.28,2.56-9.72,2.57a23.11,23.11,0,0,1-8.78-1.51,20.17,20.17,0,0,1-5.93-3.51l3.54-5.56a16.75,16.75,0,0,0,2,1.45,19.2,19.2,0,0,0,2.87,1.45A25.39,25.39,0,0,0,861,66.24a14.8,14.8,0,0,0,3.58.44,7.39,7.39,0,0,0,3.25-.65A2.25,2.25,0,0,0,869.15,63.85Z"/><path class="cls-1" d="M888.76,65.5h10.4V49h-10.4v-6.5h18.08v23h10.93V72h-29Zm9-31.08a4.2,4.2,0,0,1,1.36-3.13,5.24,5.24,0,0,1,3.78-1.3,5.75,5.75,0,0,1,4,1.3,4,4,0,0,1,1.48,3.13,3.81,3.81,0,0,1-1.48,3.1,6,6,0,0,1-4,1.22,5.49,5.49,0,0,1-3.78-1.22A4,4,0,0,1,897.74,34.42Z"/><path class="cls-1" d="M939.4,72V53.92a13.9,13.9,0,0,0-.24-2.87,5.5,5.5,0,0,0-.62-1.71,1.91,1.91,0,0,0-.94-.83,3.54,3.54,0,0,0-1.16-.2,3,3,0,0,0-1.86.65,3.14,3.14,0,0,0-1.15,1.65V72h-7.09V42.46H932l.83,3.25H933a7.24,7.24,0,0,1,6.62-3.9,7.78,7.78,0,0,1,3.72.94,5,5,0,0,1,2.42,3.31,6.6,6.6,0,0,1,2.72-3.16,7.57,7.57,0,0,1,4-1.09,8.76,8.76,0,0,1,2.86.44,5.07,5.07,0,0,1,2.22,1.57,7.76,7.76,0,0,1,1.45,3,20.21,20.21,0,0,1,.5,4.93V72h-7.09V53.09a6.08,6.08,0,0,0-.86-3.72,2.6,2.6,0,0,0-2.1-1.06,3.32,3.32,0,0,0-1.83.5,2.66,2.66,0,0,0-1.06,1.62V72Z"/><path class="cls-1" d="M649.82,135.85h6.5v5.84l.36.12a17.35,17.35,0,0,0,3,1,15.29,15.29,0,0,0,3.46.38,8.61,8.61,0,0,0,5.14-1.33,4.18,4.18,0,0,0,1.83-3.57,4,4,0,0,0-1.51-3.25,15,15,0,0,0-3.72-2.19c-1.48-.63-3.09-1.26-4.85-1.89a23.45,23.45,0,0,1-4.84-2.39,13.29,13.29,0,0,1-3.72-3.64,9.72,9.72,0,0,1-1.51-5.67,11.34,11.34,0,0,1,1-4.87,11.17,11.17,0,0,1,2.9-3.81,13.31,13.31,0,0,1,4.46-2.48,17.59,17.59,0,0,1,5.79-.89,38.88,38.88,0,0,1,7.09.65,19,19,0,0,1,5.56,1.77v12h-6.5v-6.56a1.13,1.13,0,0,1-.36-.06,21.82,21.82,0,0,0-2.81-.56,21.43,21.43,0,0,0-3-.21,7.73,7.73,0,0,0-4.46,1.12,3.51,3.51,0,0,0-1.62,3,4,4,0,0,0,1.5,3.19,17.2,17.2,0,0,0,3.72,2.24q2.22,1,4.85,2a25.53,25.53,0,0,1,4.84,2.45,13.46,13.46,0,0,1,3.73,3.64,9.47,9.47,0,0,1,1.5,5.49A12.4,12.4,0,0,1,677,143a11.22,11.22,0,0,1-3.31,4,14.58,14.58,0,0,1-5,2.43,25.12,25.12,0,0,1-10.43.44,26.89,26.89,0,0,1-3.54-.89,24,24,0,0,1-2.87-1.12c-.83-.39-1.5-.73-2-1Z"/><path class="cls-1" d="M705.36,119.83h11v23h4.49v6.5h-9.33L710.15,145h-.24a10.38,10.38,0,0,1-4.08,3.73,12.45,12.45,0,0,1-6,1.47,13.34,13.34,0,0,1-4.11-.59,7.34,7.34,0,0,1-3.16-2,8.91,8.91,0,0,1-2-3.66,20.14,20.14,0,0,1-.71-5.79V126.33h-3.36v-6.5h11v16.78q0,3.62,1.16,5.2a4.15,4.15,0,0,0,3.63,1.6,6.38,6.38,0,0,0,3.93-1.3,7,7,0,0,0,2.45-3.19V126.33h-3.31Z"/><path class="cls-1" d="M740,149.38V131.3a13.83,13.83,0,0,0-.24-2.87,5.66,5.66,0,0,0-.62-1.71,1.88,1.88,0,0,0-1-.83,3.25,3.25,0,0,0-1.15-.21,3,3,0,0,0-1.86.65A3.15,3.15,0,0,0,734,128v21.39h-7.09V119.83h5.61l.83,3.25h.18a7.19,7.19,0,0,1,2.6-2.8,7.28,7.28,0,0,1,4-1.1,7.86,7.86,0,0,1,3.73.95,5,5,0,0,1,2.42,3.31,6.54,6.54,0,0,1,2.72-3.16,7.57,7.57,0,0,1,4-1.1,8.56,8.56,0,0,1,2.87.45,5,5,0,0,1,2.22,1.56,7.67,7.67,0,0,1,1.44,3,19.67,19.67,0,0,1,.51,4.93v20.21h-7.09V130.47a6.08,6.08,0,0,0-.86-3.72,2.61,2.61,0,0,0-2.1-1.07,3.3,3.3,0,0,0-1.83.5,2.64,2.64,0,0,0-1.06,1.63v21.57Z"/><path class="cls-1" d="M779.87,149.38V131.3a13.83,13.83,0,0,0-.24-2.87,5.4,5.4,0,0,0-.62-1.71,1.9,1.9,0,0,0-.94-.83,3.3,3.3,0,0,0-1.16-.21,3,3,0,0,0-1.86.65A3.21,3.21,0,0,0,773.9,128v21.39h-7.09V119.83h5.61l.83,3.25h.18a7.19,7.19,0,0,1,2.6-2.8,7.29,7.29,0,0,1,4-1.1,7.8,7.8,0,0,1,3.72.95,5,5,0,0,1,2.42,3.31,6.6,6.6,0,0,1,2.72-3.16,7.58,7.58,0,0,1,4-1.1,8.5,8.5,0,0,1,2.86.45,5,5,0,0,1,2.22,1.56,7.81,7.81,0,0,1,1.45,3,20.21,20.21,0,0,1,.5,4.93v20.21h-7.09V130.47a6.08,6.08,0,0,0-.86-3.72,2.61,2.61,0,0,0-2.1-1.07,3.32,3.32,0,0,0-1.83.5,2.69,2.69,0,0,0-1.06,1.63v21.57Z"/><path class="cls-1" d="M809,142.88h10.4V126.33H809v-6.5h18.08v23H838v6.5H809Zm9-31.08a4.15,4.15,0,0,1,1.36-3.13,5.21,5.21,0,0,1,3.78-1.3,5.78,5.78,0,0,1,4,1.3,4,4,0,0,1,1.48,3.13,3.85,3.85,0,0,1-1.48,3.1,6.06,6.06,0,0,1-4,1.21,5.45,5.45,0,0,1-3.78-1.21A4,4,0,0,1,818,111.8Z"/><path class="cls-1" d="M852.25,126.33H846.4v-6.5h5.85V113.1l7.68-2.19v8.92h15.48v6.5H859.93v8.45c0,3,.57,5.23,1.71,6.59a5.92,5.92,0,0,0,4.79,2,10,10,0,0,0,2.89-.39,10.81,10.81,0,0,0,2.34-1,13.12,13.12,0,0,0,1.89-1.3l1.57-1.3,3.54,5.32a11.39,11.39,0,0,1-2.51,2.15,21.34,21.34,0,0,1-3.25,1.72,21,21,0,0,1-3.63,1.15,17.9,17.9,0,0,1-3.73.41q-6.62,0-9.95-3.69t-3.34-11.73Z"/><path class="cls-1" d="M651.42,185.39h24.7v26.35a22.61,22.61,0,0,1-.86,6.32,12.42,12.42,0,0,1-3.1,5.26,11.89,11.89,0,0,1-3,2.25,16.51,16.51,0,0,1-3.16,1.24,17.42,17.42,0,0,1-2.89.53q-1.37.12-2.25.12a24.25,24.25,0,0,1-5.49-.62,18.44,18.44,0,0,1-5.32-2.22l2.89-6.5a16.09,16.09,0,0,0,3.87,1.72,15.68,15.68,0,0,0,3.76.41,9,9,0,0,0,2.8-.5,6.37,6.37,0,0,0,2.63-1.69A8.87,8.87,0,0,0,668,211.8V192.6h-16.6Z"/><path class="cls-1" d="M705.36,197.21h11v23h4.49v6.5h-9.33l-1.36-4.37h-.24a10.29,10.29,0,0,1-4.08,3.72,12.45,12.45,0,0,1-6,1.48,13.65,13.65,0,0,1-4.11-.59,7.53,7.53,0,0,1-3.16-2,9,9,0,0,1-2-3.67,20,20,0,0,1-.71-5.79V203.71h-3.36v-6.5h11V214q0,3.6,1.16,5.2a4.17,4.17,0,0,0,3.63,1.59,6.38,6.38,0,0,0,3.93-1.3,7,7,0,0,0,2.45-3.19V203.71h-3.31Z"/><path class="cls-1" d="M726.46,197.21h10.33l.89,3.9h.24a11.56,11.56,0,0,1,3.9-3.31,12.23,12.23,0,0,1,6.08-1.42A14,14,0,0,1,752,197a7.85,7.85,0,0,1,3.28,1.95,9.69,9.69,0,0,1,2.16,3.69,18.08,18.08,0,0,1,.79,5.76v18.38h-7.68V210c0-2.4-.54-4.14-1.62-5.2a5.65,5.65,0,0,0-4.11-1.6,6.75,6.75,0,0,0-4,1.28,6.31,6.31,0,0,0-2.45,3.16v19.14h-7.68v-23h-4.25Z"/><path class="cls-1" d="M797.18,223.62a10.78,10.78,0,0,1-2,1.39,20.51,20.51,0,0,1-2.83,1.27,22,22,0,0,1-3.58.94,22.79,22.79,0,0,1-4.14.36,20,20,0,0,1-6.76-1.07,13.25,13.25,0,0,1-8.21-8,18.21,18.21,0,0,1-1.1-6.53,17.53,17.53,0,0,1,1.24-6.83,13.64,13.64,0,0,1,3.4-4.87,14.21,14.21,0,0,1,5-2.93,19.81,19.81,0,0,1,6.27-1,19.46,19.46,0,0,1,4.63.59,12.68,12.68,0,0,1,4.41,2,10.86,10.86,0,0,1,3.28,3.87,13.25,13.25,0,0,1,1.27,6.14,28.43,28.43,0,0,1-.59,5.5H776.26a6.86,6.86,0,0,0,.8,3.19,6.23,6.23,0,0,0,2,2.13,8.63,8.63,0,0,0,2.78,1.21,14.3,14.3,0,0,0,3.34.38,17.36,17.36,0,0,0,5.82-.82,12.79,12.79,0,0,0,3.69-2Zm-12.76-21.1a9.78,9.78,0,0,0-2.9.43,8.17,8.17,0,0,0-2.45,1.23,6.6,6.6,0,0,0-1.8,2,6.24,6.24,0,0,0-.83,2.71H791a5.85,5.85,0,0,0-6.56-6.39Z"/><path class="cls-1" d="M876.3,226.75H849.94V221c.48-.4,1.07-.92,1.78-1.57l2.39-2.21c.89-.83,1.82-1.74,2.81-2.72s2-2,2.89-3.07q2-2.25,3.52-4.08a28.89,28.89,0,0,0,2.48-3.46,14.25,14.25,0,0,0,1.45-3.19,11.2,11.2,0,0,0,.47-3.22,5.37,5.37,0,0,0-.53-2.3,6.35,6.35,0,0,0-1.48-2,7,7,0,0,0-2.27-1.36,8.38,8.38,0,0,0-2.93-.5,10.84,10.84,0,0,0-3.87.65,13.18,13.18,0,0,0-3.63,2.18l-3.08-5.43a26.36,26.36,0,0,1,5.53-3,19,19,0,0,1,7-1.21,16.73,16.73,0,0,1,4.87.71,12.64,12.64,0,0,1,4.14,2.1,10.17,10.17,0,0,1,2.87,3.46,10.29,10.29,0,0,1,1.06,4.78,17.76,17.76,0,0,1-.33,3.52,17.06,17.06,0,0,1-1,3.25,22.2,22.2,0,0,1-1.77,3.34q-1.09,1.71-2.63,3.72c-.79,1-1.65,2.06-2.57,3.1s-1.84,2-2.75,3-1.8,1.84-2.69,2.66-1.68,1.52-2.39,2.07h17Z"/><path class="cls-1" d="M887.52,206a35.35,35.35,0,0,1,1.13-9.42,19.46,19.46,0,0,1,3.17-6.71,13.32,13.32,0,0,1,4.89-4,14.94,14.94,0,0,1,6.35-1.33q7.47,0,11.51,5.23t4,16.22a35.1,35.1,0,0,1-1.13,9.48,19.62,19.62,0,0,1-3.17,6.74,13,13,0,0,1-4.92,4,15.15,15.15,0,0,1-6.38,1.33q-7.53,0-11.5-5.53T887.52,206Zm7.68,0q0,.88,0,1.68c0,.54,0,1.08.09,1.63l14.3-13.18c-1.17-3.38-3.38-5.08-6.62-5.08a6.32,6.32,0,0,0-5.78,3.64Q895.21,198.33,895.2,206Zm15.72,0q0-.94,0-1.8c0-.57,0-1.13-.09-1.69L896.44,215.7c1.22,3.59,3.42,5.38,6.63,5.38a6.38,6.38,0,0,0,5.8-3.61Q910.93,213.87,910.92,206Z"/><path class="cls-2" d="M931.42,220.25h9V194.43l-7.8,6-3.54-4.73,13.47-10.28h5.2v34.86h8.86v6.5H931.42Z"/><path class="cls-2" d="M968.23,198.33a14.55,14.55,0,0,1,1-5.55,12.51,12.51,0,0,1,2.89-4.35,13.47,13.47,0,0,1,4.49-2.83,15.91,15.91,0,0,1,5.88-1,17.26,17.26,0,0,1,6,1,12.59,12.59,0,0,1,4.67,3,13.35,13.35,0,0,1,3,4.91,19.51,19.51,0,0,1,1.06,6.7A35.27,35.27,0,0,1,995.53,212a24.46,24.46,0,0,1-4.76,8.27,20.52,20.52,0,0,1-6.94,5.08,27.67,27.67,0,0,1-8.27,2.25l-1.65-6a20.66,20.66,0,0,0,5.87-1.59,17.7,17.7,0,0,0,4.58-2.93,15.11,15.11,0,0,0,3.19-4,13.49,13.49,0,0,0,1.6-4.75,9,9,0,0,1-3.19,2,13,13,0,0,1-4.67.74h-.12a14.12,14.12,0,0,1-4.55-.77,12.27,12.27,0,0,1-7.21-6.35A12.53,12.53,0,0,1,968.23,198.33Zm7.45-.41a6.5,6.5,0,0,0,.62,2.92,6.41,6.41,0,0,0,1.62,2.13,7,7,0,0,0,2.34,1.3,8.73,8.73,0,0,0,2.74.44,10.36,10.36,0,0,0,4.2-.77,6.16,6.16,0,0,0,2.6-1.89,16.45,16.45,0,0,0,.18-2.36,11.22,11.22,0,0,0-.48-3.25,8.89,8.89,0,0,0-1.41-2.84,7.14,7.14,0,0,0-2.37-2,7,7,0,0,0-3.25-.74,6.7,6.7,0,0,0-4.84,1.87A6.8,6.8,0,0,0,975.68,197.92Z"/><path class="cls-1" d="M607.9,264.22H20.4V0H607.9ZM34.47,250.15H593.83V14.07H34.47Z"/><polygon class="cls-1" points="578.35 284.62 0 284.62 0 29.54 9.85 29.54 9.85 274.77 578.35 274.77 578.35 284.62"/><path class="cls-1" d="M535,60.55V49.42H421v10.8h-8.41V49.42H237.31v10.8h-8.4V49.42H104.66v10.8H93.85V71H83.05V214.8H513.44V204h10.8V193.2H535V182.06h10.21V60.55ZM222.91,110.17H212.7v22.27h10.21V177H182.09V132.44H161.68V177H120.86V65.62H212.7V76.76h10.21ZM345.36,87.9H284.13v22.27h51v11.14h10.2v44.54h-10.2V177H243.32V154.72h61.22V132.44h-51V121.31h-10.2V76.76h10.2V65.62h91.84ZM406.59,177H365.77V87.9H355.56V65.62h40.82V76.76h10.21ZM529,165.85h-10.2V177H427V154.72h61.22V132.44h-51V121.31H427V76.76h10.2V65.62h81.64V76.76H529Z"/><rect class="cls-1" x="467.81" y="87.9" width="20.41" height="22.27"/><rect class="cls-1" x="161.68" y="87.9" width="20.41" height="22.27"/></svg>