<svg id="Layer_1" data-name="Layer 1" xmlns="http://www.w3.org/2000/svg" viewBox="0 0 279.96 100.18"><defs><style>.cls-1{fill:#fff;}</style></defs><title>nav-logo</title><path class="cls-1" d="M273.78,6.75V0H204.7V6.54h-5.09V0H93.44V6.54H88.35V0H13.09V6.54H6.54v6.55H0v87.09H260.69V93.63h6.55V87.09h6.54V80.34H280V6.75ZM84.71,36.8H78.53V50.29h6.18v27H60v-27H47.63v27H22.9V9.82H78.53v6.74h6.18Zm74.18-13.49H121.8V36.8h30.91v6.74h6.18v27h-6.18v6.74H97.08V63.78h37.08V50.29h-30.9V43.54H97.08v-27h6.18V9.82h55.63Zm37.08,54H171.25v-54h-6.18V9.82h24.72v6.74H196Zm74.17-6.74H264v6.74H208.33V63.78h37.09V50.29h-30.9V43.54h-6.19v-27h6.19V9.82H264v6.74h6.18Z"/><rect class="cls-1" x="233.06" y="23.31" width="12.36" height="13.49"/><rect class="cls-1" x="47.63" y="23.31" width="12.36" height="13.49"/></svg>