<svg xmlns="http://www.w3.org/2000/svg" xmlns:xlink="http://www.w3.org/1999/xlink" width="602" height="148" viewBox="0 0 602 148">
    <defs>
        <path id="kn6f7kzhwa" d="M0 148L602 148 602 0 0 0z"/>
    </defs>
    <g fill="none" fill-rule="evenodd">
        <g>
            <g transform="translate(-698 -301) translate(698 301)">
                <path fill="#FFF" d="M450 15h-4.729c-1.627 1.529-3.054 3.193-4.271 5h9v-5z"/>
                <mask id="oewx773z7b" fill="#fff">
                    <use xlink:href="#kn6f7kzhwa"/>
                </mask>
                <path fill="#71CEA6" d="M64.428 81.5h7.61v-5.28h-7.61v5.28zm7.61-15.466h19.428v-5.28H72.038v5.28zm-7.61-15.466h7.61v-5.28h-7.61v5.28zm32.966-20.744v-1.19h10.777c1.03 0 1.929.191 2.723.533v.657h1.163c.453.347.86.762 1.207 1.262.824 1.193 1.346 2.534 1.57 4.017.082.549.127 1.115.127 1.703 0 2.18-.59 3.988-1.771 5.423-.626.76-1.394 1.314-2.296 1.671-.8.318-1.706.483-2.723.483H97.394V29.824zm58.163 70.273l-1.68-3.133-2.83-5.279-5.459-10.186-2.83-5.279-5.358-9.997c.094-.06.182-.128.277-.19 2.37-1.555 4.503-3.313 6.386-5.279 1.919-2.001 3.586-4.214 4.999-6.64.663-1.139 1.24-2.323 1.75-3.546.7-1.68 1.246-3.442 1.654-5.28.573-2.576.877-5.299.877-8.185 0-.676-.017-1.341-.046-2-.079-1.83-.278-3.585-.577-5.279h-7.61c-.659-3.723-1.852-7.118-3.577-10.186h7.61c-1.058-1.88-2.308-3.645-3.766-5.28-1.197-1.34-2.526-2.6-3.992-3.775-3.189-2.556-6.882-4.59-11.063-6.124-5.591-2.05-12.062-3.195-19.428-3.417-.895-.027-1.802-.042-2.723-.042H64.475c-1.085 0-2.018.397-2.805 1.189-.79.794-1.181 1.733-1.181 2.822V19.638h11.549v10.186h-11.55V45.29H52.88v5.28h7.61V76.22h-7.61v5.279h7.61V96.965H45v4.024c0 1.09.392 2.031 1.181 2.822.787.795 1.72 1.189 2.805 1.189H75.978v-8.036h15.489V105h1.941c1.082 0 2.016-.394 2.805-1.189.787-.79 1.181-1.731 1.181-2.822V76.22h7.667l2.362 5.279 3.471 7.76 1.086 2.426 2.362 5.28 1.8 4.024c.392.99 1.107 1.908 2.14 2.748 1.034.843 2.436 1.263 4.208 1.263h30.262c.886 0 1.647-.32 2.288-.966.639-.642.96-1.411.96-2.303 0-.494-.148-1.04-.443-1.634zM37 30L49 30 49 20 37 20zM0 66L20 66 20 61 0 61z" mask="url(#oewx773z7b)"/>
                <path fill="#71CEA6" d="M174.749 97.477h7.673v-5.281h-7.673v5.28zm-.028-15.47h7.701v-5.28h-7.701v5.28zm.028-61.878h7.673v-5.28h-7.673v5.28zm13.41 30.939h5.37v-5.281h-5.37v5.28zm71.483 15.47c-.25-1.871-.633-3.635-1.159-5.282-.65-2.037-1.505-3.908-2.577-5.601-1.05-1.659-2.35-3.185-3.884-4.587h-7.673c-2.227-2.032-4.976-3.787-8.221-5.281h7.673c-.333-.153-.651-.313-.994-.46-2.905-1.246-6.272-2.34-10.094-3.284-4.079-1.009-8.676-1.847-13.8-2.512-4.109-.512-7.371-1.067-9.798-1.662-1.324-.326-2.404-.663-3.226-1.013-.9-.382-1.623-.802-2.174-1.258-.88-.726-1.325-1.545-1.325-2.458 0-1.2.45-2.14 1.343-2.822 1.107-.843 2.905-1.284 5.382-1.33.14-.003.275-.009.42-.009 2.238 0 4.2.453 5.896 1.34.71.37 1.38.809 1.995 1.335.99.892 1.883 1.512 2.68 1.858.792.348 1.883.52 3.274.52H253.153c.793 0 1.512-.32 2.159-.966.644-.643.967-1.412.967-2.304-.007-.147-.031-.296-.041-.444-.23-3.33-1.402-6.726-3.532-10.189h-11.8c-.694-1.13-1.483-2.266-2.38-3.41-.502-.64-1.038-1.26-1.597-1.87h11.8c-3.65-3.978-8.523-7.343-14.631-10.093-.452-.204-.923-.383-1.385-.573C225.981 1.407 218.264 0 209.536 0c-.142 0-.28.008-.42.008-5.61.03-10.804.63-15.586 1.802-2.683.657-5.242 1.484-7.664 2.5-1.2.504-2.337 1.054-3.444 1.628-4.553 2.369-8.33 5.334-11.312 8.91h-7.673c-.43.515-.851 1.034-1.248 1.574-.88 1.197-1.653 2.434-2.33 3.707h7.674c-1.681 3.162-2.74 6.558-3.172 10.19-.15 1.259-.229 2.546-.229 3.862 0 .478.014.949.03 1.417.138 3.717.823 7.112 2.046 10.189h-5.371c.748 1.88 1.699 3.64 2.852 5.28h5.372c2.926 4.165 7.157 7.562 12.695 10.19.217.103.446.197.666.297 3.266 1.488 6.968 2.719 11.108 3.692 2.105.494 4.311.93 6.644 1.291.776.12 1.564.233 2.365.338 2.452.327 4.64.65 6.576.972 3.938.654 6.811 1.295 8.608 1.926 2.68.943 4.02 2.303 4.02 4.087 0 1.189-.879 2.142-2.61 2.866-.145.06-.286.123-.443.18-2.035.743-4.74 1.115-8.112 1.115-.501 0-.982-.03-1.463-.06-2.154-.129-4.117-.532-5.872-1.235-1.343-.54-2.573-1.245-3.681-2.123-1.191-.99-2.21-1.658-3.052-2.006-.766-.315-1.767-.478-2.98-.508-.125-.003-.24-.013-.37-.013h-28.284c-.893 0-1.663.324-2.307.966-.647.646-.968 1.412-.968 2.304.016.465.062.921.1 1.38H154c.152 1.807.476 3.568.981 5.28h7.702c.953 3.225 2.519 6.283 4.723 9.167.267.35.565.683.85 1.023h-7.673c1.621 1.922 3.539 3.687 5.776 5.28h7.673c2.435 1.735 5.229 3.28 8.39 4.627.47.2.948.396 1.435.587 2.955 1.164 6.188 2.08 9.673 2.773 4.71.936 9.908 1.437 15.585 1.512.49.006.965.025 1.463.025 8.092 0 15.467-1.067 22.135-3.184 1.1-.349 2.185-.719 3.245-1.126 3.743-1.435 7.084-3.173 10.022-5.214h-7.674c2.272-1.577 4.297-3.34 6.088-5.28h7.673c.53-.575 1.045-1.16 1.533-1.766 2.091-2.599 3.667-5.407 4.734-8.423.6-1.695 1.035-3.455 1.31-5.28.235-1.554.356-3.151.356-4.8 0-1.894-.128-3.683-.358-5.39z" mask="url(#oewx773z7b)"/>
                <path fill="#FFF" d="M277.25 35.393h6.626v-5.258h-6.626v5.258zm57.673 56.347H344v-.358c0-1.04-.333-1.89-.994-2.553-.663-.66-1.515-.993-2.556-.993h-40.182l6.156-6.24 4.655-4.717.533-.54 8.392-8.505c.701-.55 1.38-1.095 2.046-1.639 2.19-1.786 4.195-3.538 6.013-5.257 2.696-2.548 4.982-5.024 6.86-7.426.578-.74 1.122-1.476 1.623-2.204.116-.168.215-.344.327-.514 1.118-1.69 2.054-3.442 2.796-5.257 1.301-3.187 2.012-6.57 2.155-10.144.017-.44.046-.875.046-1.32 0-1.347-.078-2.657-.224-3.937-.413-3.654-1.418-7.035-3.008-10.144-.238-.465-.479-.928-.744-1.381-.809-1.387-1.758-2.67-2.813-3.877-.052-.058-.107-.112-.158-.17-2.38-2.664-5.352-4.894-8.956-6.663-4.235-2.077-9.205-3.31-14.888-3.729-1.432-.105-2.898-.172-4.422-.172-7.29 0-13.631 1.49-19.026 4.468-1.337.738-2.576 1.549-3.755 2.404-1.631 1.182-3.132 2.462-4.472 3.862h4.472v5.258h-7.634v-5.258h-4.471c-1.538 1.609-2.888 3.36-4.039 5.258h7.634c-.051.086-.11.165-.16.25-1.867 3.15-3.161 6.45-3.9 9.894h-6.625c-.368 1.715-.593 3.468-.681 5.257h6.625c-.009.176-.028.348-.033.524 0 .851.284 1.56.852 2.128.568.567 1.278.851 2.13.851H286.352c.945 0 1.822-.26 2.627-.78.803-.519 1.349-1.348 1.633-2.483.012-.081.03-.158.043-.24.303-1.908.801-3.658 1.485-5.257.867-2.03 2.031-3.822 3.513-5.354 2.698-2.789 6.412-4.185 11.146-4.185 1.56 0 2.977.148 4.28.415 2.729.558 4.91 1.687 6.51 3.415 1.438 1.552 2.433 3.459 2.997 5.71.365 1.451.554 3.044.554 4.787 0 .157-.014.313-.02.47-.096 2.592-.984 5.224-2.678 7.9-.464.73-.99 1.478-1.575 2.243-1.278 1.67-2.855 3.424-4.716 5.257-.348.343-.706.69-1.072 1.038-.263.25-.526.5-.802.753-2.517 2.318-5.785 5.11-9.768 8.353h10.57v5.257h-11.931v-5.257h-10.57c-1.785 1.453-3.7 2.988-5.78 4.627l-.635.63h11.931L283.876 76.34l-5.298 5.257-5.999 5.956c-1.586 1.203-2.626 2.603-3.15 4.188-.258.781-.399 1.605-.399 2.48v7.376c0 .946.33 1.75.993 2.411.662.663 1.467.993 2.414.993H340.45c1.04 0 1.893-.306 2.556-.922.661-.614.994-1.44.994-2.482v-4.599h-15.267V91.74h6.19z" mask="url(#oewx773z7b)"/>
                <path fill="#FFF" d="M419.5 76.96h-10.588c-.502 1.948-1.171 3.697-2.006 5.251-.475.883-.987 1.72-1.57 2.477-2.946 3.824-7.366 5.738-13.258 5.738-5.895-.001-10.314-1.914-13.259-5.738-.582-.756-1.095-1.594-1.57-2.477-.835-1.554-1.504-3.303-2.007-5.25-.656-2.548-1.043-5.414-1.129-8.636-.015-.453-.03-.961-.043-1.495-.035-1.455-.062-3.199-.078-5.25-.014-1.742-.02-3.693-.02-5.864 0-1.541.003-2.956.01-4.267.011-2.029.03-3.774.058-5.25.02-1.077.044-2.025.073-2.807.074-2.67.36-5.107.847-7.323.422-1.923 1.005-3.67 1.739-5.251.605-1.304 1.304-2.505 2.12-3.576 2.945-3.872 7.364-5.855 13.259-5.95 5.892.095 10.312 2.078 13.259 5.95.815 1.071 1.515 2.272 2.119 3.576.733 1.582 1.316 3.328 1.739 5.25h-6.893c.488 2.217.774 4.654.849 7.324.028.782.052 1.73.073 2.807h6.891c.028 1.476.048 3.221.059 5.25.007 1.311.011 2.726.011 4.267 0 2.171-.008 4.122-.022 5.863-.016 2.052-.043 3.796-.078 5.25h9.416V76.96zm-58.759-46.142h4.667v-10.13h-4.667v10.13zm51.869 15.38h6.89v-10.13h-6.89v10.13zm18.347 5.25c-.028-1.624-.07-3.375-.127-5.25-.034-1.128-.07-2.296-.115-3.514-.098-2.295-.328-4.497-.676-6.615-.298-1.815-.684-3.566-1.165-5.251-1.053-3.687-2.547-7.062-4.476-10.13-1.16-1.846-2.471-3.583-3.948-5.205-.014-.016-.03-.03-.045-.046-.292-.32-.599-.624-.904-.93C413.156 8.176 404.02 5 392.078 5c-11.48 0-20.364 2.935-26.67 8.786-.571.529-1.13 1.074-1.657 1.651l-.045.046c-1.478 1.622-2.789 3.36-3.949 5.205h-4.666c-1.93 3.068-3.424 6.443-4.477 10.13h4.667c-.482 1.685-.867 3.436-1.165 5.25-.348 2.119-.578 4.32-.676 6.616-.033.94-.061 2.12-.082 3.515-.023 1.491-.04 3.24-.05 5.25-.006 1.394-.01 2.906-.01 4.55 0 2.07.006 3.919.017 5.58.013 2.058.034 3.819.064 5.25H342c.017.842.038 1.579.061 2.205.14 2.772.451 5.414.93 7.926h11.036V66.83h11.381v10.13h-11.039c.347 1.82.785 3.568 1.309 5.251 1.152 3.706 2.73 7.085 4.743 10.13.97 1.469 2.042 2.861 3.213 4.176.33.37.673.724 1.02 1.074.245.246.501.479.754.715 6.197 5.788 15.079 8.694 26.67 8.694 12.062 0 21.2-3.138 27.423-9.409h-22.764v-5.25H419.5v5.25c.348-.35.69-.704 1.02-1.074 1.171-1.315 2.243-2.707 3.213-4.176 2.013-3.045 3.59-6.424 4.744-10.13.524-1.683.962-3.432 1.308-5.25.478-2.513.79-5.155.929-7.927.028-.753.053-1.484.077-2.204.062-1.86.11-3.61.144-5.25.043-2.026.064-3.89.064-5.58 0-1.389-.015-2.908-.043-4.551z" mask="url(#oewx773z7b)"/>
                <path fill="#FFF" d="M396.174 67.476c-.09 3.18-.492 6.01-1.174 8.524h11V66h-9.782c-.013.526-.027 1.029-.044 1.476M464.27 19.992h5.345v-5.258h-5.346v5.258zm47.179 67.844H471.25l6.16-6.24 5.19-5.257h-6.874l8.394-8.505c.702-.55 1.381-1.095 2.048-1.639h6.873c1.362-1.11 2.644-2.205 3.862-3.29.741-.66 1.465-1.317 2.154-1.967 3.53-3.336 6.362-6.546 8.486-9.63.116-.168.215-.344.327-.514h-9.544c1.118-1.69 2.054-3.442 2.796-5.257h9.545c1.302-3.187 2.013-6.57 2.156-10.144.017-.44.046-.875.046-1.32 0-1.347-.08-2.657-.223-3.937-.414-3.654-1.42-7.035-3.01-10.144-.238-.465-.479-.928-.744-1.381-.81-1.387-1.759-2.67-2.816-3.877-2.404-2.74-5.433-5.026-9.116-6.833-.019-.01-.039-.017-.057-.025C491.609 5.293 485.191 4 477.642 4c-2.818 0-5.492.228-8.027.673-4.024.707-7.696 1.968-11.007 3.795-1.336.738-2.576 1.549-3.757 2.404-1.63 1.182-3.13 2.462-4.472 3.862h-.873v5.258h-3.167c-.052.086-.11.165-.16.25-1.869 3.15-3.162 6.45-3.902 9.894-.367 1.715-.592 3.468-.68 5.257-.01.176-.028.348-.034.524 0 .851.284 1.56.852 2.128.568.567 1.278.851 2.13.851H457.33c.946 0 1.823-.26 2.628-.78.804-.519 1.35-1.348 1.633-2.483.013-.081.031-.158.044-.24.303-1.908.802-3.658 1.485-5.257.868-2.03 2.033-3.822 3.515-5.354.88-.911 1.883-1.658 2.981-2.27 2.265-1.266 4.98-1.915 8.17-1.915 4.829 0 8.426 1.277 10.795 3.83 1.438 1.552 2.433 3.459 2.997 5.71.365 1.451.554 3.044.554 4.787 0 .157-.014.313-.02.47-.096 2.592-.984 5.224-2.68 7.9-.463.73-.989 1.478-1.575 2.243h-.498v.622c-1.186 1.483-2.587 3.027-4.219 4.635-.599.59-1.216 1.185-1.875 1.791-2.518 2.318-5.787 5.11-9.772 8.353-.609.495-1.238 1.003-1.877 1.518-1.239.997-2.532 2.028-3.905 3.109l-.635.63h-6.873L447.978 76.34h6.873l-5.297 5.257-6.004 5.956c-1.585 1.203-2.626 2.603-3.15 4.188-.258.781-.4 1.605-.4 2.48v7.376c0 .946.33 1.75.994 2.411.662.663 1.467.993 2.415.993H511.45c1.04 0 1.893-.306 2.557-.922.66-.614.994-1.44.994-2.482v-4.599h-13.572V91.74H515v-.358c0-1.04-.334-1.89-.994-2.553-.664-.66-1.516-.993-2.557-.993z" mask="url(#oewx773z7b)"/>
                <path fill="#FFF" d="M509.01 51c-.006 1.377-.01 2.868-.01 4.492 0 2.044.006 3.868.018 5.508H520V51h-10.99zM544.49 55.717c0-1.542.004-2.957.012-4.268.01-2.029.03-3.774.057-5.25.02-1.077.043-2.024.073-2.807.072-2.67.355-5.107.839-7.324.419-1.922.997-3.668 1.725-5.25.6-1.304 1.292-2.504 2.101-3.576 2.92-3.872 7.303-5.855 13.148-5.95 5.844.095 10.226 2.078 13.15 5.95.807 1.072 1.501 2.272 2.1 3.576.727 1.582 1.304 3.328 1.724 5.25.483 2.217.767 4.654.84 7.324.03.783.053 1.73.073 2.806.027 1.477.048 3.222.058 5.251h.504v10.13h-.514c-.017 2.053-.044 3.795-.079 5.25-.013.535-.026 1.043-.041 1.496-.087 3.221-.47 6.088-1.122 8.636-.497 1.946-1.16 3.696-1.988 5.25-.47.882-.978 1.72-1.556 2.477-2.923 3.825-7.305 5.737-13.148 5.737h-.001c-5.845 0-10.227-1.912-13.148-5.737-.577-.757-1.085-1.595-1.556-2.477-.828-1.554-1.493-3.304-1.99-5.25-.651-2.548-1.034-5.415-1.12-8.636-.015-.453-.03-.961-.042-1.495-.036-1.456-.061-3.198-.078-5.25-.013-1.741-.02-3.693-.02-5.863m48.95.283c0-1.388-.014-2.908-.042-4.55H601c-.028-1.625-.07-3.377-.126-5.252-.034-1.128-.07-2.296-.115-3.515-.097-2.295-.325-4.496-.67-6.615-.295-1.813-.678-3.566-1.155-5.25-1.044-3.687-2.525-7.062-4.439-10.13-1.15-1.845-2.45-3.583-3.915-5.205l-.044-.046c-.646-.712-1.332-1.377-2.041-2.016C582.265 7.814 573.589 5 562.445 5v10.437h-7.353V5c-12.155 0-21.379 3.347-27.684 10.018v.419h6.947c-.014.016-.03.03-.045.046-1.464 1.622-2.764 3.36-3.915 5.205-1.914 3.068-3.396 6.443-4.44 10.13-.477 1.684-.859 3.437-1.153 5.25-.345 2.12-.573 4.32-.67 6.615-.034.942-.061 2.12-.083 3.515-.023 1.492-.04 3.24-.049 5.251h10.76v10.13h-10.753c.012 2.059.034 3.818.064 5.25.017.843.038 1.579.06 2.204.139 2.773.448 5.414.922 7.928.343 1.818.777 3.566 1.297 5.25 1.143 3.705 2.706 7.085 4.703 10.13.963 1.469 2.025 2.861 3.187 4.176.167.19.346.368.52.552.164.174.324.352.492.522h-7.601c6.169 6.27 15.23 9.409 27.193 9.409v-9.409h7.6V107h.002c11.242 0 19.921-2.774 26.049-8.313.39-.355.773-.719 1.144-1.096.345-.35.685-.704 1.012-1.074 1.162-1.315 2.223-2.707 3.186-4.176 1.997-3.045 3.56-6.425 4.704-10.13.52-1.684.954-3.432 1.297-5.25.474-2.514.783-5.155.921-7.928.028-.752.053-1.483.077-2.203.061-1.86.109-3.61.142-5.25h-7.601c.042-2.025.064-3.89.064-5.58" mask="url(#oewx773z7b)"/>
                <path fill="#FFF" d="M576 61V51h-7.99c.007 1.294.011 2.691.011 4.213 0 2.142-.007 4.068-.021 5.787h8z" mask="url(#oewx773z7b)"/>
                <path fill="#71CEA6" d="M64.52 131.801c1.2 0 2.116-.296 2.744-.89.628-.594.942-1.415.942-2.465 0-1.049-.314-1.891-.942-2.527-.628-.635-1.543-.953-2.743-.953h-4.648v6.835h4.648zM52.315 147.69c-.21-.207-.314-.448-.314-.724v-26.888c0-.304.098-.56.293-.766.195-.207.447-.311.754-.311h11.516c3.685 0 6.567.83 8.647 2.486 2.08 1.657 3.12 3.991 3.12 7.002 0 1.932-.454 3.577-1.361 4.93-.907 1.352-2.157 2.402-3.748 3.148l5.653 10.11c.084.165.126.317.126.454 0 .222-.084.421-.251.601-.168.18-.377.269-.628.269h-5.905c-.81 0-1.382-.373-1.717-1.119l-4.606-8.99h-4.02v9.074c0 .304-.105.552-.314.745-.21.193-.468.29-.775.29h-5.737c-.28 0-.524-.104-.733-.31zM93.319 134.8v-.081c0-1.304-.292-2.316-.877-3.036-.584-.719-1.405-1.08-2.463-1.08-1.057 0-1.872.361-2.442 1.08-.57.72-.856 1.732-.856 3.036v.081h6.638zm-11.313 10.531c-1.948-1.778-2.95-4.365-3.006-7.76v-1.264c.111-3.232 1.141-5.758 3.09-7.577 1.947-1.82 4.577-2.73 7.89-2.73 2.393 0 4.417.469 6.073 1.406 1.655.937 2.895 2.227 3.716 3.87.82 1.644 1.231 3.51 1.231 5.602v1.018c0 .3-.104.55-.313.755-.209.203-.466.305-.772.305H86.68v.244c.027 1.222.32 2.208.877 2.954.556.747 1.349 1.12 2.38 1.12.667 0 1.203-.128 1.607-.387.403-.258.786-.59 1.148-.998.25-.272.452-.44.605-.51.152-.067.396-.101.73-.101h5.47c.25 0 .465.075.646.224.18.15.272.333.272.55 0 .707-.412 1.534-1.232 2.485-.82.951-2.018 1.766-3.59 2.444-1.572.68-3.43 1.019-5.573 1.019-3.396 0-6.068-.89-8.015-2.669zM111.313 147.738c-.204-.175-.374-.425-.51-.748l-7.762-18.739c-.027-.08-.041-.188-.041-.322 0-.27.088-.492.266-.666.177-.175.401-.263.674-.263h4.861c.572 0 .98.282 1.226.847l4.453 12.076 4.493-12.076c.082-.214.218-.41.409-.584.19-.175.45-.263.776-.263h4.902c.246 0 .463.088.654.263.19.174.286.397.286.666l-.082.322-7.72 18.74c-.138.322-.314.571-.532.746-.219.175-.517.263-.899.263h-4.575c-.381 0-.674-.088-.879-.262M141.319 134.8v-.081c0-1.304-.292-2.316-.877-3.036-.584-.719-1.405-1.08-2.463-1.08-1.057 0-1.872.361-2.442 1.08-.57.72-.856 1.732-.856 3.036v.081h6.638zm-11.313 10.531c-1.948-1.778-2.95-4.365-3.006-7.76v-1.264c.111-3.232 1.141-5.758 3.09-7.577 1.947-1.82 4.577-2.73 7.89-2.73 2.393 0 4.417.469 6.073 1.406 1.655.937 2.895 2.227 3.716 3.87.82 1.644 1.231 3.51 1.231 5.602v1.018c0 .3-.104.55-.313.755-.209.203-.466.305-.772.305H134.68v.244c.027 1.222.32 2.208.877 2.954.556.747 1.349 1.12 2.38 1.12.667 0 1.203-.128 1.607-.387.403-.258.786-.59 1.148-.998.25-.272.452-.44.605-.51.152-.067.396-.101.73-.101h5.47c.25 0 .465.075.646.224.181.15.272.333.272.55 0 .707-.412 1.534-1.232 2.485-.82.951-2.018 1.766-3.59 2.444-1.572.68-3.43 1.019-5.573 1.019-3.396 0-6.068-.89-8.015-2.669zM153.306 147.697c-.204-.202-.306-.437-.306-.706V128.05c0-.295.095-.545.286-.747.19-.202.434-.303.734-.303H159c.3 0 .551.101.755.303.204.202.306.452.306.747v1.535c.761-.834 1.653-1.474 2.674-1.919 1.02-.444 2.156-.666 3.408-.666h1.837c.299 0 .544.095.734.283.19.188.286.43.286.727v4.402c0 .27-.095.504-.286.706-.19.202-.435.303-.734.303h-4.123c-1.088 0-1.925.297-2.51.89-.585.592-.878 1.426-.878 2.502v10.178c0 .296-.102.538-.306.726-.204.189-.456.283-.755.283h-5.388c-.272 0-.51-.1-.714-.303M174.554 147.063c-1.546-.624-2.692-1.37-3.437-2.24-.745-.87-1.117-1.657-1.117-2.364 0-.27.105-.495.316-.672.211-.177.443-.265.696-.265h5.102c.17 0 .31.055.422.163.477.3.744.475.801.53.534.38 1.033.672 1.497.876.464.203 1.019.306 1.666.306.759 0 1.385-.143 1.877-.428.49-.286.737-.686.737-1.202 0-.435-.133-.787-.4-1.06-.268-.27-.774-.536-1.518-.794-.745-.257-1.877-.523-3.395-.794-4.864-.951-7.295-3.123-7.295-6.519 0-1.114.372-2.18 1.117-3.198.745-1.019 1.841-1.84 3.29-2.465 1.447-.625 3.183-.937 5.207-.937 2.052 0 3.83.306 5.335.917 1.503.61 2.65 1.344 3.437 2.2.786.855 1.18 1.637 1.18 2.342 0 .245-.092.463-.274.653-.183.19-.4.285-.653.285h-4.639c-.253 0-.45-.055-.59-.164-.338-.163-.675-.366-1.012-.61-.506-.326-.95-.577-1.329-.754-.38-.176-.864-.265-1.455-.265-.702 0-1.251.15-1.644.448-.394.3-.59.68-.59 1.14 0 .408.118.74.358.999.238.259.73.509 1.476.753.744.246 1.876.503 3.394.775 2.755.462 4.758 1.283 6.01 2.464 1.25 1.182 1.876 2.561 1.876 4.136 0 2.037-.935 3.66-2.804 4.868-1.87 1.209-4.491 1.813-7.865 1.813-2.305 0-4.231-.312-5.777-.937M195.298 147.695c-.199-.204-.298-.44-.298-.712v-19.132c0-.299.1-.543.298-.733.2-.19.431-.285.696-.285h4.972c.292 0 .537.096.736.285.199.19.298.434.298.733v19.132c0 .299-.1.542-.298.732-.2.19-.444.285-.736.285h-4.972c-.265 0-.497-.101-.696-.305m-.02-24.098c-.185-.203-.278-.454-.278-.753v-3.785c0-.3.1-.55.298-.753.2-.204.431-.306.696-.306h4.972c.292 0 .537.102.736.306.199.203.298.454.298.753v3.785c0 .3-.1.55-.298.753-.2.204-.444.306-.736.306h-4.972c-.292 0-.53-.102-.716-.306M207.306 147.689c-.204-.208-.306-.45-.306-.726v-19.51c0-.305.102-.554.306-.747.204-.193.442-.29.714-.29h4.732c.299 0 .543.097.734.29.19.193.285.442.285.747v1.412c.653-.803 1.496-1.48 2.53-2.035 1.033-.553 2.202-.83 3.507-.83 2.992 0 5.045 1.19 6.16 3.57.653-1.051 1.564-1.91 2.733-2.574 1.17-.664 2.42-.996 3.753-.996 2.23 0 4.045.768 5.445 2.304 1.4 1.536 2.101 3.826 2.101 6.87v11.789c0 .277-.096.518-.286.726-.19.208-.435.311-.734.311h-5.017c-.3 0-.55-.097-.755-.29-.204-.194-.306-.443-.306-.747v-11.498c0-1.274-.265-2.207-.795-2.803-.53-.594-1.244-.892-2.142-.892-.843 0-1.53.298-2.06.892-.53.596-.795 1.53-.795 2.803v11.498c0 .277-.096.518-.286.726-.19.208-.435.311-.734.311h-5.017c-.3 0-.55-.097-.755-.29-.204-.194-.306-.443-.306-.747v-11.498c0-1.274-.272-2.207-.815-2.803-.544-.594-1.251-.892-2.122-.892-.843 0-1.536.298-2.08.892-.545.596-.816 1.515-.816 2.76v11.541c0 .277-.095.518-.285.726-.19.208-.435.311-.735.311h-5.14c-.271 0-.51-.103-.713-.311" mask="url(#oewx773z7b)"/>
                <path fill="#EE6513" d="M260.048 147.648c-.29-.235-.49-.531-.6-.89l-8.365-26.515-.083-.373c0-.221.089-.421.27-.6.179-.18.393-.27.641-.27h5.425c.414 0 .752.117 1.014.352.263.235.435.491.518.767l5.632 18.725 5.673-18.725c.083-.303.256-.566.518-.788.262-.22.6-.331 1.015-.331h5.424c.249 0 .456.09.622.27.165.179.248.379.248.6 0 .139-.014.263-.041.373l-8.407 26.514c-.083.36-.269.656-.559.89-.29.236-.67.353-1.139.353h-6.667c-.47 0-.849-.117-1.139-.352M281.298 147.695c-.199-.204-.298-.44-.298-.712v-19.132c0-.299.1-.543.298-.733.2-.19.431-.285.696-.285h4.972c.292 0 .537.096.736.285.199.19.298.434.298.733v19.132c0 .299-.1.542-.298.732-.2.19-.444.285-.736.285h-4.972c-.265 0-.497-.101-.696-.305m-.02-24.098c-.185-.203-.278-.454-.278-.753v-3.785c0-.3.1-.55.298-.753.2-.204.431-.306.696-.306h4.972c.292 0 .537.102.736.306.199.203.298.454.298.753v3.785c0 .3-.1.55-.298.753-.2.204-.444.306-.736.306h-4.972c-.292 0-.53-.102-.716-.306M293.306 147.697c-.204-.202-.306-.437-.306-.706V128.05c0-.295.095-.545.286-.747.19-.202.434-.303.734-.303H299c.299 0 .55.101.755.303.204.202.306.452.306.747v1.535c.761-.834 1.653-1.474 2.673-1.919 1.02-.444 2.157-.666 3.408-.666h1.837c.3 0 .544.095.735.283.19.188.286.43.286.727v4.402c0 .27-.096.504-.286.706-.19.202-.436.303-.735.303h-4.122c-1.089 0-1.925.297-2.51.89-.585.592-.878 1.426-.878 2.502v10.178c0 .296-.102.538-.306.726-.204.189-.456.283-.755.283h-5.388c-.272 0-.51-.1-.714-.303M314.293 139.872v-7.557h-3.26c-.276 0-.516-.102-.723-.306-.206-.204-.31-.442-.31-.715v-3.512c0-.3.104-.545.31-.736.207-.19.447-.285.722-.285h3.261v-6.74c0-.3.104-.544.31-.735.206-.19.447-.286.723-.286h5.078c.302 0 .55.095.742.286.193.19.29.436.29.735v6.74h5.16c.302 0 .557.096.763.285.208.191.31.436.31.736v3.512c0 .3-.102.546-.31.736-.206.19-.461.285-.763.285h-5.16v6.944c0 .953.177 1.675.536 2.165.359.49.936.735 1.734.735h3.262c.302 0 .55.102.742.306.193.205.29.457.29.756v3.758c0 .273-.097.51-.29.715-.192.204-.44.306-.742.306h-3.923c-5.835 0-8.752-2.71-8.752-8.128M333.22 145.55c-1.48-1.632-2.22-3.943-2.22-6.932v-11.58c0-.304.104-.554.308-.747.207-.193.446-.291.72-.291h5.469c.302 0 .556.098.76.29.207.194.31.444.31.748v11.331c0 2.575 1.137 3.861 3.412 3.861 1.096 0 1.953-.339 2.57-1.017.618-.678.926-1.625.926-2.844v-11.331c0-.304.103-.554.308-.747.206-.193.459-.291.76-.291h5.428c.303 0 .549.098.741.29.191.194.288.444.288.748v19.51c0 .276-.097.518-.288.725-.192.208-.438.311-.74.311h-5.017c-.302 0-.555-.096-.761-.29-.205-.193-.308-.442-.308-.747v-1.578c-1.426 2.021-3.701 3.031-6.826 3.031-2.413 0-4.36-.816-5.84-2.45M369.637 142.011c.745-.787 1.118-1.928 1.118-3.421v-.49l-3.377.57c-2.279.435-3.418 1.25-3.418 2.446 0 .624.264 1.127.793 1.507.53.38 1.187.57 1.974.57 1.194 0 2.163-.393 2.91-1.182m-8.872 5.154c-1.18-.556-2.103-1.324-2.767-2.302-.666-.978-.998-2.05-.998-3.218 0-1.847.767-3.347 2.3-4.502 1.532-1.154 3.642-1.948 6.328-2.383l5.047-.775v-.488c0-1.005-.205-1.738-.612-2.2-.406-.462-1.098-.693-2.075-.693-.543 0-.996.096-1.363.286-.366.19-.78.475-1.242.855-.352.299-.664.516-.935.652-.108.19-.244.285-.407.285h-4.72c-.273 0-.496-.088-.672-.265-.176-.176-.251-.387-.224-.632.026-.732.394-1.554 1.099-2.464.705-.91 1.776-1.691 3.215-2.343 1.438-.652 3.215-.978 5.331-.978 3.364 0 5.86.74 7.487 2.221 1.63 1.48 2.443 3.483 2.443 6.01v12.344c0 .271-.095.51-.285.712-.19.204-.434.306-.732.306h-5.007c-.271 0-.508-.102-.711-.306-.204-.203-.305-.44-.305-.712v-1.427c-.597.842-1.425 1.529-2.483 2.058-1.058.53-2.32.794-3.785.794-1.438 0-2.747-.278-3.927-.835M383.298 147.714c-.2-.19-.298-.435-.298-.735V120.02c0-.3.099-.544.298-.735.2-.19.444-.286.736-.286h4.972c.291 0 .53.095.716.286.184.19.278.436.278.735v26.958c0 .273-.094.51-.278.715-.186.204-.425.306-.716.306h-4.972c-.292 0-.537-.095-.736-.286" mask="url(#oewx773z7b)"/>
                <path fill="#71CEA6" d="M407.738 146.833c-1.858-.777-3.265-1.805-4.22-3.083-.958-1.277-1.463-2.667-1.518-4.167 0-.25.09-.458.267-.625.177-.166.39-.25.635-.25h5.451c.328 0 .594.056.798.167.206.111.431.306.677.583.355.667.908 1.216 1.66 1.645.752.432 1.756.647 3.012.647 1.476 0 2.61-.23 3.402-.688.792-.458 1.188-1.09 1.188-1.896 0-.583-.205-1.062-.615-1.438-.41-.374-1.065-.708-1.966-1-.902-.291-2.2-.617-3.894-.978-3.306-.667-5.778-1.68-7.418-3.042-1.639-1.36-2.459-3.305-2.459-5.833 0-1.722.472-3.257 1.414-4.604.943-1.347 2.28-2.396 4.016-3.146 1.736-.75 3.75-1.125 6.045-1.125 2.404 0 4.487.424 6.25 1.27 1.763.848 3.115 1.904 4.057 3.168.942 1.263 1.441 2.506 1.496 3.729 0 .25-.082.465-.245.645-.164.181-.37.27-.615.27h-5.738c-.6 0-1.066-.249-1.393-.749-.164-.583-.588-1.076-1.27-1.479-.684-.403-1.531-.605-2.542-.605-1.147 0-2.035.21-2.664.626-.629.417-.943 1.028-.943 1.833 0 .806.41 1.437 1.23 1.896.82.458 2.35.924 4.59 1.396 2.568.472 4.61 1.063 6.127 1.77 1.517.708 2.636 1.626 3.361 2.75.723 1.126 1.086 2.55 1.086 4.272 0 1.889-.533 3.527-1.6 4.916-1.064 1.39-2.54 2.452-4.425 3.188-1.885.735-4.044 1.104-6.475 1.104-2.65 0-4.905-.39-6.762-1.167M432.22 145.55c-1.48-1.632-2.22-3.943-2.22-6.932v-11.58c0-.304.104-.554.308-.747.207-.193.446-.291.72-.291h5.469c.302 0 .556.098.76.29.207.194.31.444.31.748v11.331c0 2.575 1.137 3.861 3.412 3.861 1.096 0 1.953-.339 2.57-1.017.618-.678.926-1.625.926-2.844v-11.331c0-.304.103-.554.308-.747.206-.193.459-.291.76-.291h5.428c.303 0 .549.098.741.29.191.194.288.444.288.748v19.51c0 .276-.097.518-.288.725-.192.208-.438.311-.74.311h-5.017c-.302 0-.555-.096-.761-.29-.205-.193-.308-.442-.308-.747v-1.578c-1.426 2.021-3.701 3.031-6.826 3.031-2.413 0-4.36-.816-5.84-2.45M457.306 147.689c-.205-.208-.306-.45-.306-.726v-19.51c0-.305.101-.554.306-.747.204-.193.441-.29.713-.29h4.733c.298 0 .544.097.734.29.19.193.285.442.285.747v1.412c.653-.803 1.495-1.48 2.529-2.035 1.033-.553 2.203-.83 3.509-.83 2.991 0 5.044 1.19 6.16 3.57.651-1.051 1.562-1.91 2.732-2.574 1.169-.664 2.42-.996 3.753-.996 2.23 0 4.045.768 5.446 2.304 1.4 1.536 2.1 3.826 2.1 6.87v11.789c0 .277-.095.518-.286.726-.19.208-.435.311-.733.311h-5.017c-.3 0-.551-.097-.755-.29-.204-.194-.306-.443-.306-.747v-11.498c0-1.274-.266-2.207-.796-2.803-.53-.594-1.244-.892-2.141-.892-.844 0-1.53.298-2.06.892-.531.596-.796 1.53-.796 2.803v11.498c0 .277-.095.518-.285.726-.191.208-.435.311-.735.311h-5.017c-.3 0-.551-.097-.754-.29-.204-.194-.307-.443-.307-.747v-11.498c0-1.274-.272-2.207-.816-2.803-.543-.594-1.25-.892-2.12-.892-.844 0-1.538.298-2.08.892-.545.596-.817 1.515-.817 2.76v11.541c0 .277-.096.518-.285.726-.19.208-.435.311-.734.311h-5.141c-.272 0-.51-.103-.713-.311M495.306 147.689c-.205-.208-.306-.45-.306-.726v-19.51c0-.305.101-.554.306-.747.204-.193.441-.29.713-.29h4.733c.298 0 .544.097.734.29.19.193.285.442.285.747v1.412c.653-.803 1.495-1.48 2.529-2.035 1.033-.553 2.203-.83 3.509-.83 2.991 0 5.044 1.19 6.16 3.57.651-1.051 1.562-1.91 2.732-2.574 1.169-.664 2.42-.996 3.753-.996 2.23 0 4.045.768 5.446 2.304 1.4 1.536 2.1 3.826 2.1 6.87v11.789c0 .277-.095.518-.286.726-.19.208-.435.311-.733.311h-5.017c-.3 0-.551-.097-.755-.29-.204-.194-.306-.443-.306-.747v-11.498c0-1.274-.266-2.207-.796-2.803-.53-.594-1.244-.892-2.141-.892-.844 0-1.53.298-2.06.892-.531.596-.796 1.53-.796 2.803v11.498c0 .277-.095.518-.285.726-.191.208-.435.311-.735.311h-5.017c-.3 0-.551-.097-.754-.29-.204-.194-.307-.443-.307-.747v-11.498c0-1.274-.272-2.207-.816-2.803-.543-.594-1.25-.892-2.12-.892-.844 0-1.538.298-2.08.892-.545.596-.817 1.515-.817 2.76v11.541c0 .277-.096.518-.285.726-.19.208-.435.311-.734.311h-5.141c-.272 0-.51-.103-.713-.311M533.298 147.695c-.2-.204-.298-.44-.298-.712v-19.132c0-.299.099-.543.298-.733.2-.19.43-.285.696-.285h4.971c.292 0 .538.096.736.285.2.19.299.434.299.733v19.132c0 .299-.1.542-.299.732-.198.19-.444.285-.736.285h-4.971c-.266 0-.497-.101-.696-.305m-.02-24.098c-.185-.203-.278-.454-.278-.753v-3.785c0-.3.099-.55.298-.753.2-.204.43-.306.696-.306h4.971c.292 0 .538.102.736.306.2.203.299.454.299.753v3.785c0 .3-.1.55-.299.753-.198.204-.444.306-.736.306h-4.971c-.292 0-.53-.102-.716-.306M547.294 139.872v-7.557h-3.262c-.275 0-.516-.102-.722-.306-.207-.204-.31-.442-.31-.715v-3.512c0-.3.103-.545.31-.736.206-.19.447-.285.722-.285h3.262v-6.74c0-.3.103-.544.31-.735.206-.19.446-.286.722-.286h5.078c.302 0 .55.095.743.286.192.19.289.436.289.735v6.74h5.16c.302 0 .558.096.764.285.207.191.31.436.31.736v3.512c0 .3-.103.546-.31.736-.206.19-.462.285-.764.285h-5.16v6.944c0 .953.178 1.675.536 2.165.358.49.936.735 1.734.735h3.262c.303 0 .55.102.743.306.193.205.289.457.289.756v3.758c0 .273-.096.51-.289.715-.193.204-.44.306-.743.306h-3.922c-5.836 0-8.752-2.71-8.752-8.128" mask="url(#oewx773z7b)"/>
                <path fill="#EE6513" d="M602 132.5c0 8.56-6.94 15.5-15.5 15.5-8.56 0-15.5-6.94-15.5-15.5 0-8.56 6.94-15.5 15.5-15.5 8.56 0 15.5 6.94 15.5 15.5" mask="url(#oewx773z7b)"/>
                <path fill="#EE6513" d="M578.179 146c-7.096-4.379-9.306-13.694-4.937-20.805 4.37-7.111 13.663-9.326 20.758-4.948" mask="url(#oewx773z7b)"/>
                <path fill="#535352" d="M593 132.5L583 127 583 138z" mask="url(#oewx773z7b)"/>
            </g>
        </g>
    </g>
</svg>
