<svg xmlns="http://www.w3.org/2000/svg" viewBox="0 0 449 231"><defs><style>.cls-1,.cls-2{fill:#fff;}.cls-2{font-size:28.63px;font-family:PTMono-Bold, PT Mono;font-weight:700;}</style></defs><title>RS20</title><g id="Layer_2" data-name="Layer 2"><g id="LOGO"><rect class="cls-1" x="94.25" y="62.37" width="14.65" height="15.99"/><path class="cls-1" d="M401.42,42.86v-8H319.54v6.89H313.2V34.89H237.76v-.15H148.55v7.2h-6v-7.2H53.31v7.2H47.2v7.84H39.87V153H217v-.15H388V145h7.32v-7.2h6.11v-8h7.33v-87ZM138.21,78.36h-7.33v16h7.33v32H108.9v-32H94.25v32H65v-80h65.93v8h7.33Zm87.91-16h-44v16H218.8v8h7.32v32H218.8v8H152.86v-16h44v-16H160.19v-8h-7.33v-32h7.33v-8h65.93Zm82.61,24h-7.17v8H265.72v15.93h43v15.93H237.05V86.35h7.16v-8h35.85V62.46h-43V46.53h64.51v8h7.17Zm88.39,31.86h-7.33v8H331.18v-8h-7.33V54.49h7.33v-8h58.61v8h7.33Z"/><polyline class="cls-1" points="367.69 110.28 367.93 62.49 353.28 62.42 353.04 110.21"/></g><path class="cls-1" d="M448.59,231.08H0V-.33H448.59ZM9.67,221.43H439V9.31H9.67Z"/><text class="cls-2" transform="translate(39.87 194.48)">Reversim summit 2020</text></g></svg>