<svg xmlns="http://www.w3.org/2000/svg" viewBox="0 0 721 208"><defs><style>.cls-1{fill:#fff;}.cls-2{fill:#ff6100;}</style></defs><title>RS20</title><g id="Layer_3" data-name="Layer 3"><path class="cls-1" d="M468.59,188.17H20V-.23H468.59ZM29.67,178.53H459V9.41H29.67Z"/><polygon class="cls-1" points="443.77 208.17 0.03 208.17 0.03 24.59 9.67 24.59 9.67 198.53 443.77 198.53 443.77 208.17"/><path class="cls-1" d="M497.42,24.51h9.73c5.8,0,10.57,2,10.57,8.53,0,6.29-4.77,9-10.57,9h-3.52v9.85h-6.21Zm9.23,12.61c3.25,0,5-1.4,5-4.08s-1.75-3.61-5-3.61h-3v7.69Zm3.65-.69L519,51.89h-6.93L506,40.4Z"/><path class="cls-1" d="M525.29,41.45a10.63,10.63,0,0,1,10.84-10.91c6.43,0,9.81,4.34,9.81,10a17.17,17.17,0,0,1-.26,2.77H529.87V39.17H541.5l-1,1.18c0-3.35-1.45-5.11-4.19-5.11-3.06,0-5.06,2.07-5.06,6.21,0,4.33,2.35,6.23,6.41,6.23a11.45,11.45,0,0,0,5.36-1.45L545.1,50a15.91,15.91,0,0,1-8.26,2.44C530.34,52.39,525.29,48.38,525.29,41.45Z"/><path class="cls-1" d="M552.77,31.05H559l3.28,9.82c.68,2.09,1.26,4.23,1.88,6.41h.17c.62-2.18,1.17-4.32,1.86-6.41l3.28-9.82h5.91l-7.64,20.84h-7.09Z"/><path class="cls-1" d="M582.24,41.45a10.63,10.63,0,0,1,10.84-10.91c6.43,0,9.81,4.34,9.81,10a17.17,17.17,0,0,1-.26,2.77H586.82V39.17h11.64l-1,1.18c0-3.35-1.45-5.11-4.19-5.11-3.06,0-5.06,2.07-5.06,6.21,0,4.33,2.35,6.23,6.41,6.23A11.45,11.45,0,0,0,600,46.23l2,3.72a15.91,15.91,0,0,1-8.26,2.44C587.29,52.39,582.24,48.38,582.24,41.45Z"/><path class="cls-2" d="M613.25,31.05h5.08l.49,4.55H619a9.68,9.68,0,0,1,8.45-5.06,8.57,8.57,0,0,1,4,.84l-1.25,5.2a10.9,10.9,0,0,0-3.69-.61c-2.59,0-5.24,1.34-7,5.08V51.89h-6.19Z"/><path class="cls-2" d="M639.11,49.2l2.62-3.86a15.91,15.91,0,0,0,8.41,2.47c2.29,0,3.31-.76,3.31-1.79s-1-1.58-5.1-2.44c-5.67-1.22-7.92-3.3-7.92-6.51,0-3.89,3.62-6.53,9.57-6.53a16.84,16.84,0,0,1,9,2.85l-2.77,3.71a13.39,13.39,0,0,0-6.81-2c-1.93,0-2.89.69-2.89,1.67,0,1.15,1.28,1.43,4.81,2.22,6.43,1.44,8.22,3.27,8.22,6.66,0,3.78-3.6,6.73-10.28,6.73A19.39,19.39,0,0,1,639.11,49.2Z"/><path class="cls-1" d="M677,35.89h-8.39V31.05h14.58V51.89H677ZM675.75,24A4.11,4.11,0,0,1,684,24c0,2.28-1.72,3.78-4.11,3.78S675.75,26.29,675.75,24Z"/><path class="cls-1" d="M695.3,31.05H700l.45,2.56h.14a4.72,4.72,0,0,1,4.51-3.07c1.81,0,3.13,1.18,3.62,3.41a4.89,4.89,0,0,1,4.61-3.41c3,0,4.66,2.56,4.66,6.73V51.89h-5.87V37.7c0-1.29-.31-1.9-1.12-1.9s-1.34.65-1.92,2V51.89H704.2V37.7c0-1.29-.37-1.9-1.19-1.9s-1.29.65-1.84,2V51.89H695.3Z"/><path class="cls-1" d="M496.73,104.2l2.62-3.86a15.91,15.91,0,0,0,8.41,2.47c2.3,0,3.31-.76,3.31-1.79s-1-1.58-5.1-2.44c-5.67-1.22-7.92-3.3-7.92-6.51,0-3.89,3.62-6.53,9.57-6.53a16.9,16.9,0,0,1,9,2.85l-2.77,3.71a13.46,13.46,0,0,0-6.82-2c-1.93,0-2.89.69-2.89,1.67,0,1.15,1.28,1.43,4.82,2.22,6.43,1.44,8.22,3.27,8.22,6.66,0,3.77-3.6,6.73-10.29,6.73A19.39,19.39,0,0,1,496.73,104.2Z"/><path class="cls-1" d="M525.58,98.91V86h6.18V98.12c0,2.76.74,4,3,4,1.53,0,2.62-.54,4-2.37V86H545v20.84h-5l-.44-3h-.17a9,9,0,0,1-7,3.5C527.59,107.39,525.58,104.17,525.58,98.91Z"/><path class="cls-1" d="M552.92,86h4.65l.45,2.57h.14a4.72,4.72,0,0,1,4.51-3.07c1.81,0,3.13,1.18,3.63,3.41a4.87,4.87,0,0,1,4.6-3.41c3,0,4.66,2.56,4.66,6.73v14.61h-5.87V92.7c0-1.29-.31-1.9-1.12-1.9s-1.34.65-1.91,2v14h-4.83V92.7c0-1.29-.38-1.9-1.2-1.9s-1.29.65-1.84,2v14h-5.87Z"/><path class="cls-1" d="M581.4,86h4.65l.44,2.57h.15a4.72,4.72,0,0,1,4.51-3.07c1.8,0,3.12,1.18,3.62,3.41a4.88,4.88,0,0,1,4.61-3.41c3,0,4.66,2.56,4.66,6.73v14.61h-5.87V92.7c0-1.29-.31-1.9-1.13-1.9s-1.33.65-1.91,2v14H590.3V92.7c0-1.29-.37-1.9-1.19-1.9s-1.29.65-1.84,2v14H581.4Z"/><path class="cls-1" d="M620.09,90.89H611.7V86h14.58v20.84h-6.19ZM618.8,79A4.11,4.11,0,0,1,627,79c0,2.28-1.72,3.78-4.11,3.78S618.8,81.29,618.8,79Z"/><path class="cls-1" d="M644.2,98.25V90.89H639v-4.6l5.53-.25.79-6.37h5.11V86h8.79v4.85h-8.79v7.28c0,3.17,1.34,4.36,4.38,4.36a12.45,12.45,0,0,0,4.12-.74l1.12,4.47a22.87,22.87,0,0,1-6.81,1.13C646.56,107.39,644.2,103.71,644.2,98.25Z"/><path class="cls-1" d="M496.09,148.07c0-9.15,4.49-14.06,11-14.06s11,4.91,11,14.06c0,9.37-4.5,14.32-11,14.32S496.09,157.44,496.09,148.07Zm15.67,0c0-5.69-1.8-8.71-4.65-8.71s-4.66,3-4.66,8.71c0,5.91,1.8,9,4.66,9S511.76,154,511.76,148.07Z"/><path class="cls-1" d="M524.83,151.48c0-6.94,5.63-10.94,12-10.94a11.26,11.26,0,0,1,7.8,2.83l-2.85,3.83a7.65,7.65,0,0,0-4.61-1.67,5.67,5.67,0,0,0-6.06,5.95A5.58,5.58,0,0,0,537,157.4a9.53,9.53,0,0,0,5.48-2l2.5,3.91a13.58,13.58,0,0,1-8.56,3.07C529.86,162.39,524.83,158.39,524.83,151.48Z"/><path class="cls-1" d="M556.84,153.25v-7.36h-5.25v-4.6l5.53-.25.8-6.37H563V141h8.78v4.85H563v7.28c0,3.17,1.34,4.36,4.37,4.36a12.45,12.45,0,0,0,4.12-.74l1.12,4.47a22.81,22.81,0,0,1-6.81,1.13C559.2,162.39,556.84,158.71,556.84,153.25Z"/><path class="cls-1" d="M607.94,158.34c7.65-6.42,12.78-10.94,12.78-14.79,0-2.58-1.6-4-4.4-4-2.12,0-3.85,1.31-5.36,2.71l-3.32-3.34c2.77-2.8,5.44-4.23,9.53-4.23,5.62,0,9.43,3.36,9.43,8.51,0,4.49-4.62,9.28-9.79,13.78,1.53-.16,3.46-.3,4.85-.3H628v5.19h-20Z"/><path class="cls-1" d="M636.33,148.43c0-9.08,4.08-13.73,10.25-13.73s10.26,4.65,10.26,13.73-4.08,14-10.26,14S636.33,157.49,636.33,148.43Zm15,0c0-6.93-2.1-8.94-4.75-8.94s-4.74,2-4.74,8.94,2.1,9.17,4.74,9.17S651.33,155.36,651.33,148.43Zm-7.89-.08a3.15,3.15,0,1,1,3.14,3.21A3,3,0,0,1,643.44,148.35Z"/><path class="cls-2" d="M664.89,158.34c7.65-6.42,12.79-10.94,12.79-14.79,0-2.58-1.61-4-4.41-4-2.12,0-3.85,1.31-5.36,2.71l-3.32-3.34c2.77-2.8,5.44-4.23,9.53-4.23,5.62,0,9.43,3.36,9.43,8.51,0,4.49-4.61,9.28-9.79,13.78,1.53-.16,3.46-.3,4.85-.3h6.32v5.19h-20Z"/><path class="cls-2" d="M693.28,148.43c0-9.08,4.08-13.73,10.26-13.73s10.25,4.65,10.25,13.73-4.08,14-10.25,14S693.28,157.49,693.28,148.43Zm15,0c0-6.93-2.11-8.94-4.75-8.94s-4.75,2-4.75,8.94,2.1,9.17,4.75,9.17S708.29,155.36,708.29,148.43Zm-7.9-.08a3.15,3.15,0,1,1,3.15,3.21A3,3,0,0,1,700.39,148.35Z"/><g id="LOGO"><rect class="cls-1" x="114.25" y="62.37" width="14.65" height="15.99"/><path class="cls-1" d="M421.42,42.86v-8H339.54v6.89H333.2V34.89H257.76v-.15H168.55v7.2h-6v-7.2H73.31v7.2H67.2v7.84H59.87V153H237v-.15H408V145h7.32v-7.2h6.11v-8h7.33v-87ZM158.21,78.36h-7.33v16h7.33v32H128.9v-32H114.25v32H85v-80h65.93v8h7.33Zm87.91-16h-44v16H238.8v8h7.32v32H238.8v8H172.86v-16h44v-16H180.19v-8h-7.33v-32h7.33v-8h65.93Zm82.61,24h-7.17v8H285.72v15.93h43v15.93H257.05V86.35h7.16v-8h35.85V62.46h-43V46.53h64.51v8h7.17Zm88.39,31.86h-7.33v8H351.18v-8h-7.33V54.49h7.33v-8h58.61v8h7.33Z"/><polyline class="cls-1" points="387.69 110.28 387.93 62.49 373.28 62.42 373.04 110.21"/></g></g></svg>