<svg xmlns="http://www.w3.org/2000/svg" viewBox="0 0 369 118"><defs><style>.cls-1{fill:#fff;}</style></defs><title>RS20</title><g id="Layer_2" data-name="Layer 2"><g id="LOGO"><rect class="cls-1" x="54.25" y="27.37" width="14.65" height="15.99"/><path class="cls-1" d="M361.42,7.86v-8H279.54V6.78H273.2V-.11H197.76V-.26H108.55v7.2h-6V-.26H13.31v7.2H7.2v7.84H-.13V118H177v-.15H348V110h7.32v-7.2h6.11v-8h7.33v-87ZM98.21,43.36H90.88v16h7.33v32H68.9v-32H54.25v32H25v-80H90.88v8h7.33Zm87.91-16h-44v16H178.8v8h7.32v32H178.8v8H112.86v-16h44v-16H120.19v-8h-7.33v-32h7.33v-8h65.93Zm82.61,24h-7.17v8H225.72V75.25h43V91.18H197.05V51.35h7.16v-8h35.85V27.46h-43V11.53h64.51v8h7.17Zm88.39,31.86h-7.33v8H291.18v-8h-7.33V19.49h7.33v-8h58.61v8h7.33Z"/><polyline class="cls-1" points="327.69 75.28 327.93 27.49 313.28 27.42 313.04 75.21"/></g></g></svg>