<svg xmlns="http://www.w3.org/2000/svg" viewBox="0 0 721 208"><defs><style>.cls-1,.cls-2{fill:#fff;}.cls-2{font-size:42px;font-family:PTMono-Bold, PT Mono;font-weight:700;}</style></defs><title>RS20</title><g id="Layer_3" data-name="Layer 3"><path class="cls-1" d="M468.59,188.17H20V-.23H468.59ZM29.67,178.53H459V9.41H29.67Z"/><polygon class="cls-1" points="443.77 208.17 0.03 208.17 0.03 24.59 9.67 24.59 9.67 198.53 443.77 198.53 443.77 208.17"/><text class="cls-2" transform="translate(494.5 51.89)">Reversim<tspan x="0" y="55">summit</tspan><tspan x="0" y="110">Oct 2020</tspan></text><g id="LOGO"><rect class="cls-1" x="114.25" y="62.37" width="14.65" height="15.99"/><path class="cls-1" d="M421.42,42.86v-8H339.54v6.89H333.2V34.89H257.76v-.15H168.55v7.2h-6v-7.2H73.31v7.2H67.2v7.84H59.87V153H237v-.15H408V145h7.32v-7.2h6.11v-8h7.33v-87ZM158.21,78.36h-7.33v16h7.33v32H128.9v-32H114.25v32H85v-80h65.93v8h7.33Zm87.91-16h-44v16H238.8v8h7.32v32H238.8v8H172.86v-16h44v-16H180.19v-8h-7.33v-32h7.33v-8h65.93Zm82.61,24h-7.17v8H285.72v15.93h43v15.93H257.05V86.35h7.16v-8h35.85V62.46h-43V46.53h64.51v8h7.17Zm88.39,31.86h-7.33v8H351.18v-8h-7.33V54.49h7.33v-8h58.61v8h7.33Z"/><polyline class="cls-1" points="387.69 110.28 387.93 62.49 373.28 62.42 373.04 110.21"/></g></g></svg>