<svg xmlns="http://www.w3.org/2000/svg" xmlns:xlink="http://www.w3.org/1999/xlink" width="189" height="34" viewBox="0 0 189 34">
    <defs>
        <filter id="s6f5vvhp5a">
            <feColorMatrix in="SourceGraphic" values="0 0 0 0 1.000000 0 0 0 0 1.000000 0 0 0 0 1.000000 0 0 0 1.000000 0"/>
        </filter>
        <path id="vt8a6oxa0b" d="M0 34L189 34 189 0 0 0z"/>
    </defs>
    <g fill="none" fill-rule="evenodd">
        <g filter="url(#s6f5vvhp5a)" transform="translate(-423 -43)">
            <g transform="translate(423 43)">
                <path fill="#535352" d="M141 5h-1.576c-.543.306-1.018.639-1.424 1h3V5z"/>
                <mask id="4zcpdep91c" fill="#fff">
                    <use xlink:href="#vt8a6oxa0b"/>
                </mask>
                <path fill="#FFF" d="M19.951 25.769h2.331v-1.625h-2.33v1.625zm2.331-4.759h5.951v-1.624h-5.951v1.624zm-2.33-4.758h2.33v-1.625h-2.33v1.625zm10.097-6.383v-.366h3.3c.316 0 .591.059.835.164v.202h.356c.139.107.263.234.37.388.252.367.412.78.48 1.236.026.169.04.343.04.524 0 .67-.181 1.227-.543 1.669-.192.234-.427.404-.703.514-.245.098-.523.148-.834.148h-3.301V9.87zM47.864 31.49l-.514-.964-.867-1.624-1.672-3.134-.867-1.625-1.641-3.075.084-.059c.727-.478 1.38-1.02 1.957-1.624.587-.616 1.098-1.297 1.53-2.043.204-.35.38-.715.537-1.091.214-.517.381-1.06.507-1.625.175-.793.268-1.63.268-2.518 0-.208-.005-.413-.014-.616-.024-.563-.085-1.103-.177-1.624h-2.33c-.202-1.146-.568-2.19-1.096-3.134h2.33c-.323-.58-.706-1.122-1.153-1.625-.366-.412-.773-.8-1.223-1.161-.976-.787-2.108-1.413-3.388-1.885-1.713-.63-3.695-.983-5.951-1.051C33.91 1.004 33.632 1 33.35 1H19.965c-.332 0-.618.122-.859.366-.242.244-.362.533-.362.868V6.735h3.538v3.134h-3.538v4.758h-2.33v1.625h2.33V24.144h-2.33v1.625h2.33v4.758H14v1.238c0 .336.12.626.362.87.24.243.527.365.859.365h8.267v-2.473h4.745V33h.595c.331 0 .617-.122.859-.366.24-.243.362-.533.362-.869v-7.621h2.348l.723 1.625 1.064 2.387.332.747.724 1.624.551 1.238c.12.305.34.588.656.846.316.26.746.389 1.288.389h9.27c.272 0 .505-.099.7-.297.197-.198.295-.435.295-.709 0-.152-.045-.32-.136-.503zM11 9L15 9 15 6 11 6zM0 20L6 20 6 19 0 19zM55.46 30.063h2.388v-1.629H55.46v1.629zm-.01-4.771h2.398v-1.629h-2.397v1.629zm.01-19.084h2.388V4.58H55.46v1.628zm4.174 9.542h1.673v-1.629h-1.673v1.63zm22.255 4.771c-.078-.577-.197-1.121-.361-1.629-.203-.628-.469-1.205-.802-1.727-.328-.512-.732-.983-1.21-1.415h-2.389c-.693-.627-1.549-1.168-2.559-1.629h2.389c-.103-.047-.203-.096-.31-.142-.904-.384-1.952-.721-3.142-1.012-1.27-.311-2.701-.57-4.296-.775-1.28-.158-2.295-.33-3.05-.513-.413-.1-.749-.204-1.005-.312-.28-.118-.505-.247-.677-.388-.274-.224-.412-.476-.412-.758 0-.37.14-.66.418-.87.344-.26.904-.396 1.675-.41.044-.001.086-.003.131-.003.697 0 1.308.14 1.836.412.221.115.43.25.62.413.31.275.587.466.835.573.247.107.586.16 1.02.16h9.268c.247 0 .471-.099.672-.298.201-.198.302-.435.302-.71-.003-.046-.01-.092-.013-.138-.072-1.027-.437-2.074-1.1-3.142h-3.673c-.216-.348-.462-.699-.742-1.052-.156-.197-.322-.388-.496-.576h3.673c-1.136-1.227-2.653-2.265-4.555-3.113-.14-.063-.287-.118-.43-.177C71.408.434 69.005 0 66.288 0c-.044 0-.086.002-.13.003-1.747.009-3.364.194-4.852.556-.836.202-1.632.457-2.386.77-.374.156-.728.325-1.073.503-1.417.73-2.593 1.644-3.521 2.748h-2.39c-.133.158-.264.318-.388.485-.273.369-.514.75-.725 1.143h2.39c-.524.976-.854 2.023-.989 3.142-.046.389-.07.786-.07 1.192 0 .148.004.293.009.437.043 1.147.256 2.193.637 3.142h-1.672c.232.58.528 1.123.887 1.63h1.673c.91 1.283 2.228 2.331 3.952 3.141.067.032.139.061.207.092 1.017.459 2.17.838 3.459 1.138.655.153 1.342.288 2.068.399.241.037.487.072.736.104.764.1 1.445.2 2.047.3 1.226.201 2.12.4 2.68.594.835.29 1.252.71 1.252 1.26 0 .367-.274.66-.813.884-.045.019-.089.038-.138.056-.633.23-1.475.343-2.525.343-.156 0-.306-.009-.456-.018-.67-.04-1.281-.164-1.827-.38-.419-.167-.802-.384-1.147-.656-.37-.305-.688-.51-.95-.618-.238-.097-.55-.148-.927-.157-.04 0-.075-.004-.115-.004h-8.806c-.278 0-.518.1-.719.298-.2.2-.3.436-.3.71.004.144.019.285.03.426H49c.048.558.148 1.1.306 1.629h2.397c.297.994.784 1.937 1.47 2.827.084.108.176.21.266.315h-2.39c.505.593 1.102 1.137 1.799 1.629h2.388c.758.535 1.628 1.011 2.612 1.427.147.061.296.122.447.18.92.36 1.927.642 3.012.856 1.466.289 3.084.443 4.851.466.153.002.301.008.456.008 2.52 0 4.815-.329 6.891-.982.342-.108.68-.222 1.01-.347 1.166-.443 2.206-.978 3.12-1.608h-2.388c.706-.487 1.337-1.03 1.894-1.629h2.39c.164-.177.324-.358.476-.544.652-.802 1.142-1.668 1.474-2.598.187-.523.322-1.066.408-1.629.073-.479.111-.971.111-1.48 0-.584-.04-1.136-.111-1.662z" mask="url(#4zcpdep91c)"/>
                <path fill="#535352" d="M86.14 10.946h2.071V9.28h-2.07v1.666zM104.164 28.8H107v-.114c0-.33-.104-.599-.31-.809-.208-.21-.474-.314-.8-.314H93.334l1.924-1.977 1.455-1.494.167-.172 2.622-2.694c.22-.174.431-.347.64-.52.684-.565 1.31-1.12 1.879-1.665.842-.808 1.557-1.592 2.143-2.353.181-.235.351-.468.508-.698.036-.054.067-.11.102-.163.35-.536.642-1.09.874-1.666.406-1.01.628-2.081.673-3.214.005-.139.014-.277.014-.418 0-.427-.024-.842-.07-1.247-.129-1.158-.443-2.23-.94-3.214-.074-.147-.15-.294-.232-.438-.253-.439-.55-.846-.88-1.228l-.049-.054c-.743-.844-1.672-1.55-2.798-2.111-1.324-.658-2.877-1.048-4.653-1.181C96.265 1.022 95.807 1 95.33 1c-2.278 0-4.26.472-5.945 1.416-.418.233-.805.49-1.174.762-.51.374-.978.78-1.397 1.223h1.397v1.666h-2.385V4.401h-1.398c-.48.51-.902 1.064-1.262 1.666h2.386c-.016.027-.034.052-.05.08-.584.997-.988 2.042-1.219 3.134h-2.07c-.115.543-.185 1.098-.213 1.665h2.07c-.002.056-.008.11-.01.167 0 .27.088.494.266.674.178.18.4.27.666.27H88.985c.295 0 .57-.083.82-.248.252-.164.422-.427.511-.786l.014-.077c.094-.604.25-1.159.464-1.665.271-.644.635-1.211 1.097-1.697.844-.883 2.004-1.325 3.484-1.325.487 0 .93.046 1.337.13.853.178 1.534.536 2.035 1.083.45.492.76 1.096.936 1.809.114.46.173.965.173 1.517 0 .05-.004.099-.006.148-.03.822-.307 1.656-.837 2.504-.145.23-.31.468-.492.71-.4.53-.893 1.085-1.474 1.666-.108.109-.22.218-.335.329-.082.079-.164.158-.25.238-.787.735-1.808 1.62-3.053 2.647h3.303v1.666h-3.728V19.04H89.68c-.558.46-1.156.946-1.806 1.466l-.199.2h3.728l-3.193 3.213-1.655 1.666-1.875 1.887c-.495.381-.82.825-.984 1.327-.081.247-.125.508-.125.785v2.337c0 .3.103.555.31.764.207.21.458.315.755.315h21.254c.325 0 .591-.097.799-.292.206-.195.31-.457.31-.787v-1.456h-4.771v-1.666h1.934zM130.511 23.576H127.3c-.152.61-.355 1.16-.608 1.647-.144.277-.3.54-.476.777-.894 1.2-2.235 1.8-4.023 1.8-1.788 0-3.129-.6-4.022-1.8-.177-.237-.332-.5-.476-.777-.254-.487-.457-1.036-.61-1.647-.198-.8-.316-1.698-.342-2.71l-.013-.468c-.01-.457-.019-1.004-.023-1.647-.005-.547-.007-1.159-.007-1.84 0-.483.001-.927.003-1.339.004-.636.01-1.184.018-1.647.006-.338.014-.635.022-.88.023-.838.11-1.602.257-2.298.128-.603.305-1.151.528-1.647.183-.41.395-.786.643-1.122.893-1.215 2.234-1.837 4.022-1.867 1.788.03 3.129.652 4.023 1.867.247.336.46.713.642 1.122.223.496.4 1.044.528 1.647h-2.091c.148.696.235 1.46.257 2.298.009.245.016.542.023.88h2.09c.009.463.014 1.01.018 1.647.002.412.003.856.003 1.339 0 .681-.002 1.293-.006 1.84-.005.643-.013 1.19-.024 1.647h2.856v3.178zM112.686 9.1h1.415V5.922h-1.415V9.1zm15.735 4.825h2.09v-3.178h-2.09v3.178zm5.566 1.647c-.009-.51-.021-1.059-.039-1.647-.01-.354-.021-.72-.035-1.103-.03-.72-.099-1.41-.205-2.075-.09-.569-.207-1.119-.353-1.647-.32-1.157-.773-2.216-1.358-3.178-.352-.58-.75-1.124-1.198-1.633l-.013-.014c-.089-.1-.182-.196-.275-.292C128.587 1.996 125.815 1 122.192 1c-3.482 0-6.178.921-8.09 2.756-.174.166-.343.337-.503.519l-.014.014c-.448.509-.846 1.054-1.198 1.633h-1.415c-.586.962-1.04 2.021-1.359 3.178h1.416c-.146.528-.263 1.078-.353 1.647-.106.665-.175 1.355-.205 2.075-.01.295-.019.665-.025 1.103-.007.468-.013 1.017-.015 1.647-.002.438-.003.912-.003 1.428 0 .65.001 1.23.004 1.75.005.646.011 1.198.02 1.648H107c.005.264.011.495.019.691.042.87.137 1.698.282 2.487h3.348v-3.178h3.452v3.178h-3.348c.105.57.238 1.12.396 1.647.35 1.163.829 2.223 1.44 3.178.294.461.62.898.974 1.31.1.116.204.228.31.337.074.077.152.15.228.224 1.88 1.816 4.575 2.728 8.091 2.728 3.66 0 6.431-.984 8.32-2.952h-6.906v-1.647h6.905v1.647c.106-.11.21-.22.31-.337.355-.412.68-.849.975-1.31.61-.955 1.089-2.015 1.439-3.178.159-.528.292-1.076.397-1.647.145-.789.24-1.617.281-2.487l.024-.691c.019-.584.033-1.133.043-1.647.013-.636.02-1.22.02-1.751 0-.435-.005-.912-.013-1.428z" mask="url(#4zcpdep91c)"/>
                <path fill="#535352" d="M124.32 21.443c-.024.954-.134 1.803-.32 2.557h3v-3h-2.668c-.003.158-.007.309-.012.443M145.443 6.067h1.639V4.401h-1.64v1.666zm14.468 21.495h-12.328l1.89-1.977 1.59-1.666h-2.107l2.574-2.694c.216-.174.423-.347.628-.52h2.108c.418-.351.81-.698 1.184-1.042.228-.21.45-.417.66-.623 1.083-1.057 1.952-2.074 2.603-3.051.036-.054.066-.11.1-.163h-2.926c.342-.536.63-1.09.857-1.666h2.927c.4-1.01.618-2.081.661-3.214.006-.139.015-.277.015-.418 0-.427-.025-.842-.07-1.247-.126-1.158-.434-2.23-.922-3.214-.073-.147-.147-.294-.228-.438-.248-.439-.54-.846-.864-1.228-.737-.868-1.666-1.592-2.795-2.165l-.018-.008C153.827 1.41 151.858 1 149.544 1c-.865 0-1.685.072-2.462.214-1.234.223-2.36.623-3.376 1.202-.41.233-.79.49-1.151.762-.5.374-.961.78-1.372 1.223h-.268v1.666h-.97c-.017.027-.035.052-.05.08-.573.997-.97 2.042-1.196 3.134-.113.543-.182 1.098-.21 1.665-.002.056-.008.11-.01.167 0 .27.087.494.262.674.174.18.392.27.653.27h3.92c.29 0 .56-.083.806-.248.247-.164.414-.427.501-.786l.014-.077c.092-.604.245-1.159.455-1.665.266-.644.623-1.211 1.078-1.697.27-.288.577-.525.914-.719.694-.401 1.527-.606 2.505-.606 1.481 0 2.584.404 3.311 1.213.44.492.746 1.096.919 1.809.112.46.17.965.17 1.517 0 .05-.004.099-.006.148-.03.822-.302 1.656-.822 2.504-.142.23-.303.468-.483.71h-.153v.197c-.363.47-.793.96-1.294 1.469-.183.187-.373.375-.575.567-.772.735-1.774 1.62-2.996 2.647-.187.157-.38.318-.576.48-.38.316-.777.643-1.198.986l-.194.2H143.582l-3.135 3.213h2.108l-1.625 1.666-1.841 1.887c-.486.381-.806.825-.966 1.327-.08.247-.123.508-.123.785v2.337c0 .3.101.555.305.764.203.21.45.315.74.315h20.866c.32 0 .58-.097.784-.292.203-.195.305-.457.305-.787v-1.456h-4.162v-1.666H161v-.114c0-.33-.102-.599-.305-.809-.203-.21-.465-.314-.784-.314z" mask="url(#4zcpdep91c)"/>
                <path fill="#535352" d="M159.003 16c-.002.413-.003.86-.003 1.348 0 .612.002 1.16.005 1.652H162v-3h-2.997zM170.387 16.911c0-.483 0-.927.003-1.339.003-.636.01-1.184.018-1.647.006-.337.013-.635.023-.88.022-.838.11-1.602.261-2.298.13-.603.311-1.15.538-1.647.187-.409.403-.786.655-1.122.91-1.215 2.276-1.837 4.098-1.867 1.821.03 3.187.652 4.098 1.867.252.336.469.713.655 1.122.227.496.407 1.044.537 1.647.151.696.24 1.46.263 2.297.008.246.016.544.022.881.009.463.015 1.01.018 1.647h.157v3.179h-.16c-.005.644-.013 1.19-.024 1.647l-.013.469c-.027 1.01-.147 1.91-.35 2.709-.155.61-.362 1.16-.62 1.647-.146.277-.305.54-.485.777-.91 1.2-2.277 1.8-4.098 1.8-1.822 0-3.188-.6-4.098-1.8-.18-.237-.338-.5-.485-.777-.258-.487-.465-1.036-.62-1.647-.203-.8-.323-1.699-.35-2.71l-.013-.468c-.01-.457-.019-1.003-.024-1.647-.004-.547-.006-1.159-.006-1.84m15.257.089c0-.435-.004-.912-.013-1.428H188c-.009-.51-.022-1.059-.04-1.647-.01-.354-.021-.72-.035-1.103-.03-.72-.101-1.41-.209-2.075-.092-.569-.21-1.119-.36-1.647-.325-1.157-.787-2.216-1.383-3.178-.359-.579-.764-1.124-1.22-1.633l-.014-.014c-.202-.224-.416-.432-.637-.633C182.161 1.882 179.456 1 175.983 1v3.275h-2.292V1c-3.788 0-6.663 1.05-8.63 3.143v.132h2.167l-.014.014c-.457.509-.862 1.054-1.22 1.633-.597.962-1.06 2.021-1.384 3.178-.15.528-.268 1.078-.36 1.647-.108.665-.179 1.356-.209 2.075-.01.296-.019.665-.026 1.103-.007.468-.012 1.017-.015 1.647h3.354v3.179h-3.352c.004.645.01 1.197.02 1.647.005.264.012.495.019.69.043.87.14 1.7.287 2.488.107.57.243 1.12.404 1.647.357 1.163.844 2.223 1.466 3.178.3.461.632.898.994 1.31.052.06.108.116.162.174.051.054.1.11.153.163h-2.37c1.924 1.968 4.748 2.952 8.477 2.952v-2.952h2.369V33c3.504 0 6.21-.87 8.12-2.608.121-.111.24-.225.356-.344.108-.11.214-.22.316-.337.362-.412.692-.849.993-1.31.622-.955 1.11-2.015 1.466-3.178.162-.528.297-1.077.404-1.647.148-.788.244-1.617.287-2.487l.024-.691c.019-.584.034-1.133.044-1.647h-2.369c.013-.636.02-1.22.02-1.751" mask="url(#4zcpdep91c)"/>
                <path fill="#535352" d="M180 19v-3h-2.996c.003.388.004.807.004 1.264 0 .642-.003 1.22-.008 1.736h3z" mask="url(#4zcpdep91c)"/>
            </g>
        </g>
    </g>
</svg>
