<?xml version="1.0" standalone="no"?>
<!DOCTYPE svg PUBLIC "-//W3C//DTD SVG 20010904//EN"
 "http://www.w3.org/TR/2001/REC-SVG-20010904/DTD/svg10.dtd">
<svg version="1.0" xmlns="http://www.w3.org/2000/svg"
 width="300.000000pt" height="300.000000pt" viewBox="0 0 300.000000 300.000000"
 preserveAspectRatio="xMidYMid meet">
<metadata>
Created by potrace 1.11, written by Peter Selinger 2001-2013
</metadata>
<g transform="translate(0.000000,300.000000) scale(0.100000,-0.100000)"
fill="#000000" stroke="none">
<path d="M1157 2924 c-1 -1 -18 -5 -37 -8 -230 -37 -474 -190 -562 -352 -62
-114 -84 -294 -63 -504 4 -41 9 -93 11 -115 2 -22 4 -110 5 -195 2 -154 2
-156 -23 -183 -14 -15 -28 -43 -30 -62 -5 -44 25 -109 58 -124 33 -15 106 -14
176 3 l56 13 12 -42 c11 -39 10 -46 -14 -81 -14 -22 -30 -52 -36 -69 -7 -18
-28 -40 -53 -56 -128 -77 -180 -303 -123 -527 88 -343 343 -578 565 -519 30 8
47 8 59 1 33 -21 123 -36 177 -30 125 13 220 97 272 240 8 22 17 52 19 66 2
14 7 36 10 49 3 13 5 58 5 100 -1 437 -315 881 -630 892 -28 1 -51 6 -51 10 0
4 -2 14 -5 21 -4 9 22 29 79 61 87 48 107 74 99 125 -8 54 -41 83 -97 86 -26
1 -33 7 -42 36 -18 56 -27 144 -29 304 -2 207 24 378 76 503 16 38 21 41 46
37 138 -24 252 -125 392 -347 93 -147 272 -530 271 -579 0 -7 -15 -20 -33 -28
-50 -24 -49 -59 6 -114 44 -44 46 -45 99 -40 29 2 60 7 69 9 12 4 21 -9 36
-57 l20 -63 -36 -26 c-80 -59 -125 -132 -156 -253 -79 -310 49 -688 269 -796
108 -53 203 -38 298 47 24 22 56 49 71 61 41 31 80 89 107 157 20 52 24 78 24
195 1 152 -11 207 -70 320 -39 75 -57 95 -186 208 l-95 83 -28 90 c-15 51 -24
94 -19 98 5 5 29 16 54 25 61 24 70 33 70 72 0 38 -29 74 -60 74 -12 0 -20 7
-20 18 0 32 -67 284 -113 422 -143 436 -371 685 -675 740 -51 9 -216 12 -225
4z"/>
</g>
</svg>
