<?xml version="1.0" encoding="utf-8"?>
<!-- Generator: Adobe Illustrator 19.2.1, SVG Export Plug-In . SVG Version: 6.00 Build 0)  -->
<svg version="1.1" id="Layer_1" xmlns="http://www.w3.org/2000/svg" xmlns:xlink="http://www.w3.org/1999/xlink" x="0px" y="0px"
	 viewBox="0 0 2200 800" style="enable-background:new 0 0 2200 800;" xml:space="preserve">
<style type="text/css">
	.st0{fill:none;stroke:#000000;stroke-width:8.5406;stroke-linecap:round;stroke-linejoin:round;stroke-miterlimit:10;}
</style>
<path d="M997.5,462.9c0,23.4-31.1,30.7-50.1,30.7c-7.7,0-15-0.7-21.6-2.6c-35.2-9.9-37.3-49.4-11.7-67.3
	c20.9-14.6,56.3-13.9,83.4-6.9V462.9z M1015.7,389.4c0-45.7-17.3-63.4-60.1-63.5c-26.8-0.8-54.5,8.1-65.9,26.6l15.6,9.4
	c7.5-11.1,19.8-16.2,32.7-18.3c3.7-0.5,7.3-0.9,10.7-1.1c1.2,0,2.3-0.1,3.5-0.1c31.2,0,45.2,10.8,45.2,44.3v10.1v3.1
	c-36.2-7-72.4-4.7-95.1,10.6c-37.3,24.5-31.5,84.5,18.3,98.1c8.8,2.2,17.9,3.6,26.7,3.6c16.9,0,35.4-3.2,50.7-16.5l3.6,11.7
	c4.9,0,12.9,0,14.2,0v-1.4L1015.7,389.4z"/>
<path d="M2053.5,462.9c0,23.4-31.1,30.7-50.1,30.7c-7.7,0-15-0.7-21.6-2.6c-35.2-9.9-37.3-49.4-11.7-67.3
	c20.9-14.6,56.3-13.9,83.4-6.9V462.9z M2071.7,389.4c0-45.7-17.3-63.4-60.1-63.5c-26.8-0.8-54.5,8.1-65.9,26.6l15.6,9.4
	c7.5-11.1,19.8-16.2,32.7-18.3c3.7-0.5,7.3-0.9,10.7-1.1c1.2,0,2.3-0.1,3.5-0.1c31.2,0,45.2,10.8,45.2,44.3v10.1v3.1
	c-36.2-7-72.5-4.7-95.1,10.6c-37.3,24.5-31.5,84.5,18.3,98.1c8.8,2.2,17.9,3.6,26.7,3.6c16.9,0,35.4-3.2,50.7-16.5l3.6,11.7
	c4.9,0,12.9,0,14.2,0v-1.4L2071.7,389.4z"/>
<path d="M1586.9,462.9c0,23.4-31.1,30.7-50.1,30.7c-7.7,0-15-0.7-21.6-2.6c-35.2-9.9-37.3-49.4-11.7-67.3
	c20.9-14.6,56.3-13.9,83.4-6.9V462.9z M1605.2,389.4c0-45.7-17.3-63.4-60.1-63.5c-26.8-0.8-54.5,8.1-65.9,26.6l15.6,9.4
	c7.5-11.1,19.8-16.2,32.7-18.3c3.7-0.5,7.3-0.9,10.7-1.1c1.2,0,2.3-0.1,3.5-0.1c31.2,0,45.2,10.8,45.2,44.3v10.1v3.1
	c-36.2-7-72.5-4.7-95.1,10.6c-37.3,24.5-31.5,84.5,18.3,98.1c8.8,2.2,17.9,3.6,26.7,3.6c16.9,0,35.4-3.2,50.7-16.5l3.6,11.7
	c4.9,0,12.9,0,14.2,0v-1.4L1605.2,389.4z"/>
<path d="M1099.5,248.6v79.2h36.7v16.5c-14.7,0-22,0-36.7,0.4V457c0,30.8,12.8,33.7,36.9,34.4v16.8c-33.3,1.8-55.2-10.3-55.2-50.9
	V344.2h-31.5v-16.5h31.5v-79.2H1099.5z"/>
<path d="M1245,495.5c39.9,0,55.4-21.2,55.4-76.9c0-55.4-15.4-76.3-55.4-76.3c-40.3,0-56.3,20.9-56.3,76.3
	C1188.7,474.6,1204.7,495.5,1245,495.5 M1245,511.5c-52.1,0-75.4-26.1-75.4-92.9c0-66.3,23.6-92.7,75.4-92.7
	c52.4,0,74.4,26.4,74.4,92.7C1319.4,485.5,1297.4,511.5,1245,511.5"/>
<path d="M1833.7,326.3c-20.9,0-43.9,8.1-53.8,25.3c-7.7-17.2-28.9-26-51.3-26c-17.1,0-37.1,4.8-50.6,19.5l-3.7-17.3
	c-4.9,0-12.9,0-14.2,0v0V398v109.6h18.7V379.8c0-22.7,23.4-37,46.8-37.7c21.3-0.4,42.5,10.2,44,33v132.6h18.3V375
	c1.5-22,23.4-31.9,45.4-31.9c22.7,0,45.4,10.3,45.4,33.7v130.8h18.7V377.2C1897.4,342.8,1865.6,326.7,1833.7,326.3"/>
<path d="M1376.2,347.1v-0.2l-4.1-19.2c-4.9,0-12.9,0-14.2,0v0V379v19v27.9v81.7h18.7V378.7c0-29.3,43.7-41.8,67.9-33.7l2.9-17.2
	C1421.9,321.2,1392,325.2,1376.2,347.1"/>
<path d="M762.7,494.9c-42,0-56.1-22.2-56.1-76.7c0-53.1,15.6-74.2,56.6-74.2c22.5,0,41,13.3,50.4,27.5v65.9v28.3
	C807.7,476.7,793.4,494.9,762.7,494.9 M831.8,248.6h-18.3V351c-13.1-14.8-33.1-25.4-55-25.4c-50,0-71.2,31.1-71.2,91.9
	c0,63.3,19.7,94.8,70.7,94.8c24.3,0,43.8-4,55.5-18.2v0.1l4.1,13.3c4.9,0,12.9,0,14.2,0V248.6z"/>
<path class="st0" d="M503.6,344.8v129.5l-54.4,31.1v62.2L558,505.4V313.7L503.6,344.8z M503.6,282.6l-54.4,31.1l54.4,31.1l54.4-31.1
	L503.6,282.6z M340.4,318.9l54.4,31.1l-54.4,31.1V318.9z M449.2,381.1l-54.4,31.1l54.4,31.1V381.1z M449.2,443.2l54.4,31.1
	l-54.4,31.1V443.2z M340.4,381.1l54.4,31.1l-54.4,31.1V381.1z M449.2,443.2v124.4l-54.4,31.1V474.3L449.2,443.2z M340.4,443.2v124.4
	l54.4,31.1V474.3L340.4,443.2z M286,350v124.4l54.4,31.1V318.9L286,350z M394.8,350l-54.4,31.1l54.4,31.1l54.4-31.1L394.8,350z
	 M286,287.8l-54.4,31.1L286,350l54.4-31.1L286,287.8z M285.9,158.2v62.2l-54.5-31.1v129.5l54.5-31.1l54.5,31.1V189.3L285.9,158.2z
	 M394.8,220.4V350l54.4,31.1V251.5L394.8,220.4z M394.8,158.2v129.5l-54.4,31.1V189.3L394.8,158.2z M394.8,158.2l54.4,31.1
	l-54.4,31.1V158.2z M394.8,287.8l-54.4,31.1l54.4,31.1V287.8z M286,158.2l-54.4,31.1l54.4,31.1V158.2z M340.4,567.6L286,598.7
	l54.4,31.1l54.4-31.1L340.4,567.6z M394.8,412.1l-54.4,31.1l54.4,31.1l54.4-31.1L394.8,412.1z M286,474.3l-54.4,31.1l54.4,31.1
	l54.4-31.1L286,474.3z M231.6,381.1l-54.4,31.1l54.4,31.1l54.4-31.1L231.6,381.1z M231.4,505.4v-62.2l-54.5-31.1v124.4l108.9,62.2
	v-62.2L231.4,505.4z M231.6,251.5v129.5l-54.4,31.1V282.6L231.6,251.5z M340.4,505.4v62.2L286,598.7v-62.2L340.4,505.4z
	 M449.2,313.7v129.5l54.4,31.1V344.8L449.2,313.7z M503.6,220.4v62.2l54.4,31.1v-62.2L503.6,220.4z M503.6,220.4v62.2l-54.4,31.1
	v-62.2L503.6,220.4z M286,412.1v62.2l-54.4,31.1v-62.2L286,412.1z M231.6,318.9v62.2l54.4,31.1V350L231.6,318.9z M122.8,251.5v253.9
	l54.4,31.1V282.6L122.8,251.5z M231.6,189.3l-54.4,31.1l54.4,31.1V189.3z M340.4,127.2L286,158.2l54.4,31.1l54.4-31.1L340.4,127.2z
	 M449.2,189.3l-54.4,31.1l54.4,31.1l54.4-31.1L449.2,189.3z M177.2,220.4l-54.4,31.1l54.4,31.1l54.4-31.1L177.2,220.4z"/>
</svg>
